<svg width="139" height="24" viewBox="0 0 139 24" fill="none" xmlns="http://www.w3.org/2000/svg">
<g clip-path="url(#clip0_54_74501)">
<path d="M23.8806 20.4H0V24H23.8806V20.4Z" fill="#13C690"/>
<path d="M23.8806 0H0V20.4H23.8806V0Z" fill="#252E3F"/>
<path d="M10.1062 7.90272H7.02637V9.47952H10.0481V11.2782H7.02637V14.28H5.16687V6.104H10.1062V7.90272ZM17.5387 8.44H19.3982L17.5387 14.28H15.9117L14.9819 11.1614L14.0522 14.28H12.4251L10.5656 8.44H12.4251L13.2619 11.5702L14.1684 8.44H15.7954L16.702 11.5702L17.5387 8.44Z" fill="white"/>
<path d="M41.4194 7.89771H35.9029V10.7219H41.3151V13.9436H35.9029V19.32H32.5724V4.67603H41.4194V7.89771ZM46.4052 10.7219C46.8215 9.32027 48.2162 8.65083 49.5276 8.65083V12.2072C48.2369 11.998 46.4052 12.521 46.4052 14.5921V19.32H43.2828V8.86003H46.4052V10.7219ZM58.2385 8.86003H61.3608V19.32H58.2385V18.3368C57.5515 19.1317 56.5314 19.6129 55.1368 19.6129C52.41 19.6129 50.162 17.2071 50.162 14.09C50.162 10.9729 52.41 8.56715 55.1368 8.56715C56.5314 8.56715 57.5515 9.04831 58.2385 9.84327V8.86003ZM55.7612 16.6423C57.1977 16.6423 58.2385 15.659 58.2385 14.09C58.2385 12.521 57.1977 11.5378 55.7612 11.5378C54.3252 11.5378 53.2844 12.521 53.2844 14.09C53.2844 15.659 54.3252 16.6423 55.7612 16.6423ZM75.3083 8.56715C77.7023 8.56715 79.2633 10.2826 79.2633 12.8976V19.32H76.1409V13.1695C76.1409 12.1235 75.6414 11.4541 74.6424 11.4541C73.6016 11.4541 73.0186 12.1863 73.0186 13.4206V19.32H69.8962V13.1695C69.8962 12.1235 69.3967 11.4541 68.3977 11.4541C67.3569 11.4541 66.7738 12.1863 66.7738 13.4206V19.32H63.6514V8.86003H66.7738V9.82235C67.2526 9.11107 68.1684 8.56715 69.5634 8.56715C70.7913 8.56715 71.7071 9.06923 72.2902 9.94787C72.8729 9.11107 73.8305 8.56715 75.3083 8.56715ZM84.1871 15.3452C84.5827 16.4331 85.5403 16.8096 86.685 16.8096C87.5388 16.8096 88.2671 16.4749 88.6834 16.0147L91.1813 17.4581C90.1612 18.8807 88.6209 19.6129 86.6436 19.6129C83.0838 19.6129 80.8777 17.2071 80.8777 14.09C80.8777 10.9729 83.1256 8.56715 86.4144 8.56715C89.4536 8.56715 91.7019 10.9311 91.7019 14.09C91.7019 14.5293 91.6602 14.9477 91.577 15.3452H84.1871ZM84.1246 13.0022H88.6003C88.2671 11.7888 87.3306 11.3495 86.3937 11.3495C85.2072 11.3495 84.4164 11.9353 84.1246 13.0022ZM104.515 8.86003H107.846L104.515 19.32H101.601L99.9356 13.7344L98.2703 19.32H95.3561L92.0255 8.86003H95.3561L96.8546 14.4666L98.4785 8.86003H101.393L103.016 14.4666L104.515 8.86003ZM113.674 19.6129C110.614 19.6129 108.158 17.2071 108.158 14.09C108.158 10.9729 110.614 8.56715 113.674 8.56715C116.734 8.56715 119.19 10.9729 119.19 14.09C119.19 17.2071 116.734 19.6129 113.674 19.6129ZM113.674 16.5586C115.027 16.5586 116.068 15.5753 116.068 14.09C116.068 12.6047 115.027 11.6215 113.674 11.6215C112.321 11.6215 111.28 12.6047 111.28 14.09C111.28 15.5753 112.321 16.5586 113.674 16.5586ZM124.079 10.7219C124.495 9.32027 125.89 8.65083 127.201 8.65083V12.2072C125.91 11.998 124.079 12.521 124.079 14.5921V19.32H120.956V8.86003H124.079V10.7219ZM138.652 19.32H135.114L131.783 14.6967V19.32H128.661V4.67603H131.783V13.4415L134.906 8.86003H138.548L134.76 14.09L138.652 19.32Z" fill="white"/>
</g>
<defs>
<clipPath id="clip0_54_74501">
<rect width="138.667" height="24" fill="white"/>
</clipPath>
</defs>
</svg>
