<svg width="58" height="24" viewBox="0 0 58 24" fill="none" xmlns="http://www.w3.org/2000/svg">
<rect width="21.8806" height="3.28208" transform="translate(0.684692 19.6582)" fill="#13C690"/>
<rect width="21.8806" height="18.5985" transform="translate(0.684692 1.05972)" fill="#252E3F"/>
<path d="M4.4627 6.1853H6.16647V13.6393H4.4627V6.1853ZM9.95211 13.7884C8.38677 13.7884 7.38581 13.043 6.97052 11.9462L8.44002 11.0943C8.70623 11.7119 9.16412 12.1272 10.0054 12.1272C10.8146 12.1272 11.017 11.8077 11.017 11.5202C11.017 11.0623 10.591 10.8813 9.47292 10.5725C8.36548 10.2637 7.27932 9.73127 7.27932 8.30436C7.27932 6.86681 8.49326 6.03622 9.78173 6.03622C11.0063 6.03622 11.9647 6.62189 12.5078 7.71869L11.0702 8.55993C10.8146 8.0275 10.4632 7.6974 9.78173 7.6974C9.24931 7.6974 8.98309 7.96361 8.98309 8.26177C8.98309 8.60252 9.16412 8.83679 10.3248 9.18819C11.4536 9.52894 12.7207 9.92294 12.7207 11.4989C12.7207 12.9365 11.5707 13.7884 9.95211 13.7884ZM15.9731 13.7884C14.4078 13.7884 13.4068 13.043 12.9915 11.9462L14.461 11.0943C14.7272 11.7119 15.1851 12.1272 16.0264 12.1272C16.8356 12.1272 17.038 11.8077 17.038 11.5202C17.038 11.0623 16.612 10.8813 15.4939 10.5725C14.3865 10.2637 13.3003 9.73127 13.3003 8.30436C13.3003 6.86681 14.5143 6.03622 15.8027 6.03622C17.0273 6.03622 17.9857 6.62189 18.5288 7.71869L17.0912 8.55993C16.8356 8.0275 16.4842 7.6974 15.8027 7.6974C15.2703 7.6974 15.0041 7.96361 15.0041 8.26177C15.0041 8.60252 15.1851 8.83679 16.3458 9.18819C17.4746 9.52894 18.7417 9.92294 18.7417 11.4989C18.7417 12.9365 17.5917 13.7884 15.9731 13.7884Z" fill="white"/>
<path d="M30.4597 5.23594H33.5113V18.5867H30.4597V5.23594ZM40.2917 18.8537C37.488 18.8537 35.6952 17.5187 34.9514 15.5542L37.5834 14.0284C38.0602 15.1346 38.8803 15.8784 40.3871 15.8784C41.8366 15.8784 42.199 15.3063 42.199 14.7913C42.199 13.9712 41.4361 13.6469 39.4335 13.0938C37.4499 12.5407 35.5045 11.5871 35.5045 9.03138C35.5045 6.45658 37.6788 4.96892 39.9866 4.96892C42.1799 4.96892 43.8964 6.01791 44.8691 7.98239L42.2943 9.48912C41.8366 8.53549 41.2072 7.94424 39.9866 7.94424C39.0329 7.94424 38.5561 8.42105 38.5561 8.95509C38.5561 9.56541 38.8803 9.98501 40.9593 10.6144C42.9809 11.2247 45.2506 11.9304 45.2506 14.7531C45.2506 17.3279 43.1907 18.8537 40.2917 18.8537ZM51.0759 18.8537C48.2722 18.8537 46.4794 17.5187 45.7356 15.5542L48.3676 14.0284C48.8444 15.1346 49.6645 15.8784 51.1713 15.8784C52.6208 15.8784 52.9832 15.3063 52.9832 14.7913C52.9832 13.9712 52.2203 13.6469 50.2176 13.0938C48.2341 12.5407 46.2887 11.5871 46.2887 9.03138C46.2887 6.45658 48.463 4.96892 50.7707 4.96892C52.9641 4.96892 54.6806 6.01791 55.6533 7.98239L53.0785 9.48912C52.6208 8.53549 51.9914 7.94424 50.7707 7.94424C49.8171 7.94424 49.3403 8.42105 49.3403 8.95509C49.3403 9.56541 49.6645 9.98501 51.7434 10.6144C53.7651 11.2247 56.0348 11.9304 56.0348 14.7531C56.0348 17.3279 53.9749 18.8537 51.0759 18.8537Z" fill="white"/>
</svg>
