<?xml version="1.0" standalone="no"?>
<!DOCTYPE svg PUBLIC "-//W3C//DTD SVG 1.1//EN" "http://www.w3.org/Graphics/SVG/1.1/DTD/svg11.dtd" >
<svg xmlns="http://www.w3.org/2000/svg">
<metadata>Generated by IcoMoon</metadata>
<defs>
<font id="icomoon" horiz-adv-x="1024">
<font-face units-per-em="1024" ascent="960" descent="-64" />
<missing-glyph horiz-adv-x="1024" />
<glyph unicode="&#x20;" horiz-adv-x="512" d="" />
<glyph unicode="&#xe900;" glyph-name="adjustments" horiz-adv-x="983" d="M245.76 816.8c22.621 0 40.96-18.339 40.96-40.96v-129.908c17.117-6.052 32.847-15.88 45.929-28.963 23.045-23.045 35.991-54.299 35.991-86.89 0-32.588-12.946-63.844-35.991-86.888-13.083-13.083-28.812-22.913-45.929-28.963v-293.749c0-22.622-18.339-40.96-40.96-40.96s-40.96 18.338-40.96 40.96v293.749c-17.117 6.050-32.847 15.88-45.929 28.963-23.045 23.044-35.991 54.301-35.991 86.888 0 32.59 12.946 63.845 35.991 86.89 13.083 13.083 28.812 22.911 45.929 28.963v129.908c0 22.621 18.339 40.96 40.96 40.96zM491.52 816.8c22.622 0 40.96-18.339 40.96-40.96v-375.669c17.117-6.050 32.846-15.88 45.928-28.963 23.044-23.044 35.992-54.297 35.992-86.888 0-32.588-12.947-63.844-35.992-86.888-13.083-13.083-28.811-22.913-45.928-28.963v-47.989c0-22.622-18.338-40.96-40.96-40.96s-40.96 18.338-40.96 40.96v47.989c-17.117 6.050-32.846 15.88-45.929 28.963-23.045 23.044-35.991 54.301-35.991 86.888 0 32.592 12.946 63.844 35.991 86.888 13.083 13.083 28.812 22.913 45.929 28.963v375.669c0 22.621 18.338 40.96 40.96 40.96zM737.28 816.8c22.622 0 40.96-18.339 40.96-40.96v-7.028c17.117-6.052 32.846-15.88 45.928-28.963 23.044-23.045 35.992-54.299 35.992-86.889s-12.947-63.845-35.992-86.889c-13.083-13.083-28.811-22.913-45.928-28.962v-416.629c0-22.622-18.338-40.96-40.96-40.96s-40.96 18.338-40.96 40.96v416.629c-17.117 6.050-32.846 15.879-45.928 28.962-23.044 23.044-35.992 54.299-35.992 86.889s12.947 63.845 35.992 86.889c13.083 13.083 28.811 22.911 45.928 28.963v7.028c0 22.621 18.338 40.96 40.96 40.96zM737.28 693.92c-10.863 0-21.283-4.316-28.963-11.997s-11.997-18.1-11.997-28.963c0-10.863 4.317-21.282 11.997-28.963s18.1-11.997 28.963-11.997c10.863 0 21.283 4.315 28.963 11.997s11.997 18.1 11.997 28.963c0 10.863-4.317 21.282-11.997 28.963s-18.1 11.997-28.963 11.997zM245.76 571.040c-10.863 0-21.282-4.316-28.963-11.997s-11.997-18.101-11.997-28.963c0-10.863 4.316-21.283 11.997-28.963s18.1-11.997 28.963-11.997c10.863 0 21.282 4.317 28.963 11.997s11.997 18.1 11.997 28.963c0 10.863-4.316 21.282-11.997 28.963s-18.1 11.997-28.963 11.997zM491.52 325.28c-10.863 0-21.283-4.317-28.963-11.997s-11.997-18.1-11.997-28.963c0-10.863 4.317-21.283 11.997-28.963s18.1-11.997 28.963-11.997c10.863 0 21.283 4.317 28.963 11.997s11.997 18.1 11.997 28.963c0 10.863-4.317 21.283-11.997 28.963s-18.1 11.997-28.963 11.997z" />
<glyph unicode="&#xe901;" glyph-name="alert_octagon" d="M652.8 874.667c21.333 0 38.997-6.827 54.357-20.053l5.675-5.248 200.533-200.533c14.848-14.848 23.296-31.787 25.003-52.224l0.299-7.808v-281.6c0-21.333-6.827-38.997-20.053-54.357l-5.248-5.675-200.533-200.533c-14.848-14.848-31.787-23.296-52.224-25.003l-7.808-0.299h-281.6c-21.333 0-38.997 6.827-54.357 20.053l-5.675 5.248-200.533 200.533c-14.848 14.848-23.296 31.787-25.003 52.224l-0.299 7.808v281.6c0 21.333 6.827 38.997 20.053 54.357l5.248 5.675 200.533 200.533c14.848 14.848 31.787 23.296 52.224 25.003l7.808 0.299h281.6zM512.427 320l-5.419-0.299c-10.368-1.233-19.93-6.229-26.863-14.037s-10.765-17.886-10.765-28.331c0-10.445 3.831-20.523 10.765-28.331s16.495-12.804 26.863-14.037l4.992-0.299 5.419 0.299c10.368 1.233 19.93 6.229 26.863 14.037s10.765 17.886 10.765 28.331c0 10.445-3.831 20.523-10.765 28.331s-16.495 12.804-26.863 14.037l-4.992 0.299zM512 661.333c-10.449-0.001-20.535-3.838-28.348-10.783-7.808-6.944-12.796-16.513-14.020-26.892l-0.299-4.992v-170.667l0.299-4.992c1.233-10.368 6.229-19.93 14.037-26.863s17.886-10.765 28.331-10.765c10.445 0 20.523 3.831 28.331 10.765s12.804 16.495 14.037 26.863l0.299 4.992v170.667l-0.299 4.992c-1.225 10.379-6.212 19.948-14.020 26.892-7.812 6.944-17.899 10.781-28.348 10.783z" />
<glyph unicode="&#xe902;" glyph-name="alert_triangle" horiz-adv-x="983" d="M429.031 848.551c18.326 10.312 39.002 15.729 60.031 15.729s41.705-5.417 60.035-15.729c18.326-10.312 33.69-25.171 44.605-43.145l0.131-0.213 345.346-576.477c10.678-18.51 16.331-39.49 16.388-60.862 0.057-21.369-5.48-42.381-16.060-60.948-10.584-18.567-25.838-34.038-44.253-44.88s-39.35-16.679-60.715-16.921l-0.471-0.004h-690.439c-21.369 0.246-42.301 6.083-60.716 16.925s-33.672 26.313-44.253 44.88c-10.581 18.567-16.118 39.58-16.060 60.948 0.058 21.373 5.708 42.353 16.389 60.862l0.338 0.578 345.094 576.113c10.917 17.974 26.28 32.833 44.61 43.144zM489.062 782.36c-6.959 0-13.799-1.792-19.862-5.204-6.038-3.396-11.1-8.281-14.709-14.189l-344.687-575.431c-3.445-6.066-5.267-12.923-5.285-19.898-0.019-7.074 1.813-14.025 5.314-20.169s8.549-11.264 14.642-14.852c6.038-3.555 12.894-5.48 19.897-5.595h689.42c7.004 0.115 13.857 2.040 19.898 5.595 6.091 3.588 11.141 8.708 14.639 14.852 3.502 6.144 5.333 13.095 5.317 20.169-0.020 6.975-1.839 13.828-5.284 19.894l-344.678 575.349c-0.016 0.029-0.033 0.057-0.053 0.086-3.609 5.908-8.671 10.794-14.705 14.189-6.066 3.412-12.906 5.204-19.866 5.204zM491.52 618.542c22.622 0 40.96-18.339 40.96-40.96v-163.841c0-22.622-18.338-40.96-40.96-40.96s-40.96 18.338-40.96 40.96v163.841c0 22.621 18.338 40.96 40.96 40.96zM450.56 249.901c0 22.622 18.338 40.96 40.96 40.96h0.41c22.622 0 40.96-18.338 40.96-40.96s-18.338-40.96-40.96-40.96h-0.41c-22.622 0-40.96 18.338-40.96 40.96z" />
<glyph unicode="&#xe903;" glyph-name="align_center" d="M298.667 320v-85.333h426.667v85.333h-426.667zM128 64h768v85.333h-768v-85.333zM128 405.333h768v85.333h-768v-85.333zM298.667 661.333v-85.333h426.667v85.333h-426.667zM128 832v-85.333h768v85.333h-768z" />
<glyph unicode="&#xe904;" glyph-name="align_left" d="M640 320h-512v-85.333h512v85.333zM640 661.333h-512v-85.333h512v85.333zM128 405.333h768v85.333h-768v-85.333zM128 64h768v85.333h-768v-85.333zM128 832v-85.333h768v85.333h-768z" />
<glyph unicode="&#xe905;" glyph-name="align_right" d="M128 64h768v85.333h-768v-85.333zM384 234.667h512v85.333h-512v-85.333zM128 405.333h768v85.333h-768v-85.333zM384 576h512v85.333h-512v-85.333zM128 832v-85.333h768v85.333h-768z" />
<glyph unicode="&#xe906;" glyph-name="apps" horiz-adv-x="983" d="M122.88 768.87c0 22.622 18.339 40.96 40.96 40.96h245.76c22.622 0 40.96-18.338 40.96-40.96v-245.762c0-22.618-18.338-40.96-40.96-40.96h-245.76c-22.621 0-40.96 18.342-40.96 40.96v245.762zM204.8 727.91v-163.84h163.84v163.84h-163.84zM532.48 768.87c0 22.622 18.338 40.96 40.96 40.96h245.76c22.622 0 40.96-18.338 40.96-40.96v-245.762c0-22.618-18.338-40.96-40.96-40.96h-245.76c-22.622 0-40.96 18.342-40.96 40.96v245.762zM614.4 727.91v-163.84h163.84v163.84h-163.84zM122.88 359.268c0 22.622 18.339 40.96 40.96 40.96h245.76c22.622 0 40.96-18.338 40.96-40.96v-245.76c0-22.618-18.338-40.96-40.96-40.96h-245.76c-22.621 0-40.96 18.342-40.96 40.96v245.76zM204.8 318.308v-163.84h163.84v163.84h-163.84zM580.469 352.244c30.724 30.724 72.397 47.985 115.851 47.985s85.127-17.261 115.851-47.985c30.728-30.728 47.989-72.401 47.989-115.855 0-43.45-17.261-85.123-47.989-115.851-30.724-30.724-72.397-47.989-115.851-47.989s-85.127 17.265-115.851 47.989c-30.728 30.728-47.989 72.401-47.989 115.851 0 43.454 17.261 85.127 47.989 115.855zM696.32 318.308c-21.725 0-42.562-8.63-57.926-23.99-15.364-15.364-23.994-36.2-23.994-57.93 0-21.725 8.63-42.562 23.994-57.926 15.364-15.36 36.2-23.994 57.926-23.994s42.562 8.634 57.926 23.994c15.364 15.364 23.994 36.2 23.994 57.926 0 21.729-8.63 42.566-23.994 57.93-15.364 15.36-36.2 23.99-57.926 23.99z" />
<glyph unicode="&#xe907;" glyph-name="arrow_bar_to_down" horiz-adv-x="983" d="M491.52 814.48c22.622 0 40.96-18.339 40.96-40.96v-310.713l93.917 93.916c15.995 15.996 41.931 15.996 57.926 0 15.995-15.998 15.995-41.93 0-57.924l-163.84-163.84c-15.995-15.999-41.931-15.999-57.926 0l-163.84 163.84c-15.996 15.995-15.996 41.927 0 57.924s41.93 15.996 57.926 0l93.917-93.916v310.713c0 22.621 18.338 40.96 40.96 40.96zM122.88 118.161c0 22.618 18.339 40.96 40.96 40.96h655.36c22.622 0 40.96-18.342 40.96-40.96 0-22.622-18.338-40.96-40.96-40.96h-655.36c-22.621 0-40.96 18.338-40.96 40.96z" />
<glyph unicode="&#xe908;" glyph-name="arrow_bar_to_up" horiz-adv-x="983" d="M122.88 773.52c0 22.621 18.339 40.96 40.96 40.96h655.36c22.622 0 40.96-18.339 40.96-40.96s-18.338-40.96-40.96-40.96h-655.36c-22.621 0-40.96 18.338-40.96 40.96zM462.557 556.723c15.995 15.996 41.931 15.996 57.926 0l163.84-163.839c15.995-15.999 15.995-41.931 0-57.926-15.995-15.999-41.931-15.999-57.926 0l-93.917 93.917v-310.714c0-22.622-18.338-40.96-40.96-40.96s-40.96 18.338-40.96 40.96v310.714l-93.917-93.917c-15.996-15.999-41.93-15.999-57.926 0-15.996 15.995-15.996 41.927 0 57.926l163.84 163.839z" />
<glyph unicode="&#xe909;" glyph-name="arrow_down" d="M341.803 585.344l170.197-169.813 170.069 169.813 52.267-52.267-222.464-222.464-222.336 222.464z" />
<glyph unicode="&#xe90a;" glyph-name="arrow_move_left" horiz-adv-x="983" d="M274.723 597.683c15.996-15.996 15.996-41.93 0-57.924l-52.957-52.957h310.714c22.622 0 40.96-18.338 40.96-40.96s-18.338-40.96-40.96-40.96h-310.714l52.957-52.957c15.996-15.999 15.996-41.931 0-57.926-15.996-15.999-41.93-15.999-57.926 0l-122.88 122.88c-15.996 15.995-15.996 41.927 0 57.926l122.88 122.879c15.996 15.996 41.93 15.996 57.926 0zM778.24 486.801c-10.863 0-21.283-4.317-28.963-11.997-7.68-7.684-11.997-18.1-11.997-28.963 0-10.867 4.317-21.283 11.997-28.963 7.68-7.684 18.1-11.997 28.963-11.997s21.283 4.313 28.963 11.997c7.68 7.68 11.997 18.096 11.997 28.963 0 10.863-4.317 21.279-11.997 28.963-7.68 7.68-18.1 11.997-28.963 11.997zM691.352 532.73c23.044 23.044 54.297 35.99 86.888 35.99s63.844-12.947 86.888-35.99c23.044-23.044 35.992-54.301 35.992-86.888 0-32.592-12.947-63.844-35.992-86.893-23.044-23.044-54.297-35.987-86.888-35.987s-63.844 12.943-86.888 35.987c-23.044 23.048-35.992 54.301-35.992 86.893 0 32.588 12.947 63.844 35.992 86.888z" />
<glyph unicode="&#xe90b;" glyph-name="arrow_narrow_down" horiz-adv-x="983" d="M491.52 773.52c22.622 0 40.96-18.339 40.96-40.96v-474.553l93.917 93.917c15.995 15.995 41.931 15.995 57.926 0 15.995-15.999 15.995-41.931 0-57.926l-163.84-163.84c-15.995-15.999-41.931-15.999-57.926 0l-163.84 163.84c-15.996 15.995-15.996 41.927 0 57.926 15.996 15.995 41.93 15.995 57.926 0l93.917-93.917v474.553c0 22.621 18.338 40.96 40.96 40.96z" />
<glyph unicode="&#xe90c;" glyph-name="arrow_narrow_up" horiz-adv-x="983" d="M462.557 761.523c15.995 15.996 41.931 15.996 57.926 0l163.84-163.84c15.995-15.996 15.995-41.93 0-57.924-15.995-15.999-41.931-15.999-57.926 0l-93.917 93.915v-474.552c0-22.622-18.338-40.96-40.96-40.96s-40.96 18.338-40.96 40.96v474.552l-93.917-93.915c-15.996-15.999-41.93-15.999-57.926 0-15.996 15.994-15.996 41.929 0 57.924l163.84 163.84z" />
<glyph unicode="&#xe90d;" glyph-name="arrows_maximize" horiz-adv-x="983" d="M655.36 732.56c-22.622 0-40.96 18.338-40.96 40.96s18.338 40.96 40.96 40.96h163.84c22.622 0 40.96-18.339 40.96-40.96v-163.84c0-22.622-18.338-40.96-40.96-40.96s-40.96 18.338-40.96 40.96v64.954l-175.837-175.835c-15.995-15.999-41.931-15.999-57.926 0-15.995 15.995-15.995 41.927 0 57.924l175.837 175.837h-64.954zM438.563 392.884c15.995-15.999 15.995-41.931 0-57.926l-175.837-175.837h64.954c22.621 0 40.96-18.342 40.96-40.96 0-22.622-18.339-40.96-40.96-40.96h-163.84c-22.621 0-40.96 18.338-40.96 40.96v163.84c0 22.622 18.339 40.96 40.96 40.96s40.96-18.338 40.96-40.96v-64.954l175.837 175.837c15.996 15.995 41.931 15.995 57.926 0z" />
<glyph unicode="&#xe90e;" glyph-name="arrows_minimize" horiz-adv-x="983" d="M848.163 802.483c15.995-15.996 15.995-41.93 0-57.926l-175.837-175.837h64.954c22.622 0 40.96-18.337 40.96-40.959s-18.338-40.96-40.96-40.96h-163.84c-22.622 0-40.96 18.338-40.96 40.96v163.839c0 22.621 18.338 40.96 40.96 40.96s40.96-18.339 40.96-40.96v-64.954l175.837 175.837c15.995 15.996 41.931 15.996 57.926 0zM204.8 363.921c0 22.622 18.339 40.96 40.96 40.96h163.84c22.622 0 40.96-18.338 40.96-40.96v-163.84c0-22.622-18.338-40.96-40.96-40.96s-40.96 18.338-40.96 40.96v64.954l-175.837-175.837c-15.996-15.999-41.93-15.999-57.926 0-15.996 15.995-15.996 41.927 0 57.926l175.837 175.837h-64.954c-22.621 0-40.96 18.338-40.96 40.96z" />
<glyph unicode="&#xe90f;" glyph-name="atom" d="M512 490.667c-25.6 0-42.667-17.067-42.667-42.667s17.067-42.667 42.667-42.667c25.6 0 42.667 17.067 42.667 42.667s-17.067 42.667-42.667 42.667zM789.329 448.009c25.6 38.4 46.933 76.8 59.733 110.933 17.067 42.667 29.867 81.067 29.867 119.467s-8.533 72.533-34.133 102.4c-25.6 25.6-64 38.4-102.4 34.133-38.4 0-76.8-12.8-119.467-29.867-34.133-17.067-72.533-34.133-110.933-59.733-38.4 25.6-76.8 46.933-110.933 59.733-42.667 17.067-81.067 29.867-119.467 29.867s-72.533-8.533-102.4-34.133c-25.6-29.867-34.133-64-34.133-102.4s12.8-76.8 29.867-119.467c17.067-34.133 34.133-72.533 59.733-110.933-25.6-38.4-46.933-76.8-59.733-110.933-17.067-42.667-29.867-81.067-29.867-119.467s8.533-72.533 34.133-102.4c25.6-25.6 64-38.4 102.4-34.133 38.4 0 76.8 12.8 119.467 29.867 34.133 17.067 72.533 34.133 110.933 59.733 38.4-25.6 76.8-46.933 110.933-59.733 42.667-17.067 81.067-29.867 119.467-29.867s72.533 8.533 102.4 34.133c25.6 25.6 38.4 64 34.133 102.4 0 38.4-12.8 76.8-29.867 119.467-12.8 34.133-34.133 72.533-59.733 110.933zM657.062 708.275c34.133 17.067 64 21.333 85.333 21.333s34.133-4.267 38.4-12.8c4.267-4.267 12.8-17.067 12.8-38.4s-8.533-51.2-21.333-85.333c-8.533-21.333-21.333-46.933-38.4-72.533-21.333 25.6-46.933 51.2-72.533 76.8s-51.2 51.2-76.8 72.533c25.6 17.067 51.2 29.867 72.533 38.4zM230.396 678.408c0 21.333 4.267 34.133 12.8 38.4 4.267 8.533 12.8 12.8 38.4 12.8 21.333 0 51.2-8.533 85.333-21.333 21.333-8.533 46.933-21.333 72.533-38.4-25.6-21.333-51.2-46.933-76.8-72.533s-51.2-51.2-72.533-76.8c-17.067 25.6-29.867 51.2-38.4 72.533-12.8 34.133-21.333 64-21.333 85.333zM366.929 187.742c-34.133-17.067-64-21.333-89.6-21.333-21.333 0-34.133 4.267-38.4 12.8-4.267 4.267-12.8 17.067-12.8 38.4s8.533 51.2 21.333 85.333c8.533 21.333 21.333 46.933 38.4 72.533 21.333-25.6 46.933-51.2 72.533-76.8s51.2-51.2 76.8-72.533c-21.333-17.067-46.933-29.867-68.267-38.4zM511.996 277.342c-29.867 25.6-59.733 51.2-89.6 81.067s-59.733 59.733-81.067 89.6c25.6 29.867 51.2 59.733 81.067 89.6s59.733 59.733 89.6 81.067c29.867-25.6 59.733-51.2 89.6-81.067s55.467-59.733 81.067-89.6c-25.6-29.867-51.2-59.733-81.067-89.6s-59.733-59.733-89.6-81.067zM785.062 174.942c-4.267-4.267-17.067-12.8-38.4-12.8s-51.2 8.533-85.333 21.333c-21.333 8.533-46.933 21.333-72.533 38.4 25.6 21.333 51.2 46.933 76.8 72.533s51.2 51.2 72.533 76.8c17.067-25.6 29.867-51.2 38.4-72.533 17.067-34.133 21.333-64 21.333-85.333-4.267-21.333-8.533-29.867-12.8-38.4z" />
<glyph unicode="&#xe910;" glyph-name="bookmark" horiz-adv-x="983" d="M368.64 741.17c-10.863 0-21.282-4.316-28.963-11.997s-11.997-18.1-11.997-28.963v-501.095l142.766 85.66c12.972 7.782 29.176 7.782 42.148 0l142.766-85.66v501.095c0 10.863-4.317 21.282-11.997 28.963s-18.1 11.997-28.963 11.997h-245.76zM281.751 787.099c23.045 23.045 54.299 35.991 86.889 35.991h245.76c32.588 0 63.844-12.946 86.888-35.991s35.992-54.299 35.992-86.889v-573.439c0-14.758-7.938-28.373-20.779-35.643s-28.602-7.074-41.255 0.52l-183.726 110.236-183.726-110.236c-12.654-7.594-28.414-7.791-41.255-0.52s-20.779 20.886-20.779 35.643v573.439c0 32.59 12.946 63.845 35.991 86.889z" />
<glyph unicode="&#xe911;" glyph-name="bookmark_fill" horiz-adv-x="983" d="M281.751 773.769c23.045 23.045 54.299 35.991 86.889 35.991h245.76c32.588 0 63.844-12.946 86.888-35.991s35.992-54.299 35.992-86.889v-573.441c0-14.754-7.938-28.373-20.779-35.643s-28.602-7.070-41.255 0.52l-183.726 110.236-183.726-110.236c-12.654-7.59-28.414-7.791-41.255-0.52s-20.779 20.89-20.779 35.643v573.441c0 32.59 12.946 63.845 35.991 86.889z" />
<glyph unicode="&#xe912;" glyph-name="bookmarks" horiz-adv-x="983" d="M429.986 776.657c6.238 3.596 13.316 5.483 20.513 5.473h245.821c10.863 0 21.283-4.316 28.963-11.997 7.684-7.682 11.997-18.1 11.997-28.963v-425.979c-13.902-0.012-27.451-7.102-35.123-19.89-11.637-19.399-5.349-44.56 14.049-56.197l40.96-24.576c12.653-7.594 28.414-7.791 41.255-0.52 8.741 4.948 15.208 12.837 18.448 22.024h2.331v13.39c0 0.078 0 0.152 0 0.229v491.519c0 32.59-12.947 63.845-35.992 86.889s-54.297 35.991-86.888 35.991h-245.735c-21.586 0.026-42.802-5.637-61.506-16.418-18.715-10.786-34.255-26.316-45.056-45.022-11.311-19.591-4.599-44.642 14.993-55.953s44.641-4.598 55.951 14.993c3.6 6.236 8.782 11.412 15.020 15.007zM257.757 606.293c7.682 7.681 18.1 11.997 28.963 11.997h245.76c10.863 0 21.283-4.316 28.963-11.997s11.997-18.1 11.997-28.963v-419.175l-142.766 85.66c-12.972 7.782-29.176 7.782-42.148 0l-142.766-85.66v419.175c0 10.863 4.316 21.282 11.997 28.963zM286.72 700.21c-32.59 0-63.845-12.946-86.889-35.991s-35.991-54.299-35.991-86.889v-491.519c0-14.758 7.938-28.373 20.779-35.643s28.601-7.074 41.255 0.52l183.726 110.236 183.726-110.236c12.653-7.594 28.414-7.791 41.255-0.52s20.779 20.886 20.779 35.643v491.519c0 32.59-12.947 63.845-35.992 86.889s-54.301 35.991-86.888 35.991h-245.76z" />
<glyph unicode="&#xe913;" glyph-name="books_off" horiz-adv-x="983" d="M151.552 837.152c-16.384 16.384-40.96 16.384-57.344 0s-16.384-40.96 0-57.344l69.632-69.632v-557.055c0-20.48 8.192-40.96 24.576-57.344s36.864-24.576 57.344-24.576h81.92c16.384 0 28.672 4.096 40.96 12.288 12.288-8.192 24.576-12.288 40.96-12.288h81.92c20.48 0 40.96 8.192 57.344 24.576s24.576 36.864 24.576 57.344v147.456l36.864-36.864 36.864-131.072c12.288-45.056 57.344-69.632 102.4-57.344l40.96 8.192 40.96-40.96c16.384-16.384 40.96-16.384 57.344 0s16.384 40.96 0 57.344l-737.28 737.279zM327.68 153.121h-81.92v409.599h65.536l16.384-16.383v-393.216zM491.52 153.121h-81.92v81.92h81.92v-81.92zM491.52 316.961h-81.92v147.456l81.92-81.92v-65.536zM745.472 300.577c4.096-20.48 24.576-32.768 45.056-28.672l8.192-24.576c4.096-20.48 28.672-32.768 49.152-28.672s32.768 28.672 28.672 49.152l-131.072 479.231c-12.288 45.056-57.344 69.632-102.4 57.344l-90.112-20.48c0 0 0 0-4.096 0h-4.096c-12.288 16.384-32.768 24.576-53.248 24.576h-81.92c-16.384 0-28.672-4.096-40.96-12.288-12.288 8.192-24.576 12.288-40.96 12.288-24.576 0-40.96-16.384-40.96-40.96s16.384-40.96 40.96-40.96c0-24.576 16.384-40.96 40.96-40.96s40.96 16.384 40.96 40.96h81.92v-163.84c0-24.575 16.384-40.959 40.96-40.959h4.096l4.096-20.48c4.096-20.48 28.672-32.768 49.152-28.672s32.768 28.672 28.672 49.152l-4.096 8.192 94.208 24.575 57.344-208.895c-12.288-4.096-24.576-24.576-20.48-45.056zM598.016 611.872l-24.576 94.208h4.096l90.112 20.48c0 0 0 0 4.096 0l24.576-90.112-98.304-24.576z" />
<glyph unicode="&#xe914;" glyph-name="browser" d="M810.667 832h-597.333c-21.333 0-42.667-8.533-59.733-25.6s-25.6-38.4-25.6-59.733v-597.333c0-21.333 8.533-42.667 25.6-59.733s38.4-25.6 59.733-25.6h597.333c21.333 0 42.667 8.533 59.733 25.6s25.6 38.4 25.6 59.733v597.333c0 21.333-8.533 42.667-25.6 59.733s-38.4 25.6-59.733 25.6zM213.333 746.667h85.333v-85.333h-85.333v85.333zM810.667 149.333h-597.333v426.667h597.333v-426.667zM810.667 661.333h-426.667v85.333h426.667v-85.333z" />
<glyph unicode="&#xe915;" glyph-name="business" d="M590.117 952.353c15.095-9.329 24.283-25.809 24.283-43.553v-177.398l284.403-189.601c14.24-9.496 22.797-25.482 22.797-42.601v-460.8h51.2c28.275 0 51.2-22.925 51.2-51.2s-22.925-51.2-51.2-51.2h-921.6c-28.277 0-51.2 22.925-51.2 51.2s22.923 51.2 51.2 51.2h51.2v665.6c0 19.393 10.957 37.122 28.303 45.795l409.6 204.8c15.871 7.936 34.72 7.088 49.814-2.241zM204.8 38.4h307.2v664.9c-0.007 0.498-0.007 0.996 0 1.494v121.162l-307.2-153.6v-633.956zM614.4 608.332v-569.932h204.8v433.398l-204.8 136.534zM358.4 652.8c28.277 0 51.2-22.923 51.2-51.2v-0.512c0-28.277-22.923-51.2-51.2-51.2s-51.2 22.923-51.2 51.2v0.512c0 28.277 22.923 51.2 51.2 51.2zM358.4 499.2c28.277 0 51.2-22.923 51.2-51.2v-0.512c0-28.277-22.923-51.2-51.2-51.2s-51.2 22.923-51.2 51.2v0.512c0 28.277 22.923 51.2 51.2 51.2zM358.4 345.6c28.277 0 51.2-22.923 51.2-51.2v-0.512c0-28.275-22.923-51.2-51.2-51.2s-51.2 22.925-51.2 51.2v0.512c0 28.277 22.923 51.2 51.2 51.2zM358.4 192c28.277 0 51.2-22.925 51.2-51.2v-0.512c0-28.275-22.923-51.2-51.2-51.2s-51.2 22.925-51.2 51.2v0.512c0 28.275 22.923 51.2 51.2 51.2z" />
<glyph unicode="&#xe916;" glyph-name="calendar_check" horiz-adv-x="983" d="M327.68 864.3c22.621 0 40.96-18.338 40.96-40.96v-40.96h245.76v40.96c0 22.622 18.338 40.96 40.96 40.96s40.96-18.338 40.96-40.96v-40.96h40.96c32.588 0 63.844-12.946 86.888-35.991s35.992-54.299 35.992-86.889v-245.759c0-22.622-18.338-40.96-40.96-40.96s-40.96 18.338-40.96 40.96v40.96h-573.44v-286.72c0-10.863 4.316-21.283 11.997-28.963 7.682-7.684 18.1-11.997 28.963-11.997h225.28c22.622 0 40.96-18.338 40.96-40.96s-18.338-40.96-40.96-40.96h-225.28c-32.59 0-63.845 12.943-86.889 35.992-23.045 23.044-35.991 54.297-35.991 86.888v491.519c0 32.59 12.946 63.845 35.991 86.889s54.299 35.991 86.889 35.991h40.96v40.96c0 22.622 18.339 40.96 40.96 40.96zM286.72 700.46h-40.96c-10.863 0-21.282-4.315-28.963-11.997s-11.997-18.1-11.997-28.963v-122.879h573.44v122.879c0 10.863-4.317 21.282-11.997 28.963s-18.1 11.997-28.963 11.997h-40.96v-40.96c0-22.621-18.338-40.96-40.96-40.96s-40.96 18.339-40.96 40.96v40.96h-245.76v-40.96c0-22.621-18.339-40.96-40.96-40.96s-40.96 18.339-40.96 40.96v40.96zM889.123 278.864c15.995-15.995 15.995-41.931 0-57.926l-163.84-163.84c-15.995-15.999-41.931-15.999-57.926 0l-81.92 81.92c-15.995 15.995-15.995 41.931 0 57.926s41.931 15.995 57.926 0l52.957-52.957 134.877 134.877c15.995 15.995 41.931 15.995 57.926 0z" />
<glyph unicode="&#xe917;" glyph-name="camera" horiz-adv-x="1067" d="M362.34 807.006c16.003 16.003 37.708 24.994 60.34 24.994h256.002c22.63 0 44.335-8.99 60.339-24.994 16-16.003 24.994-37.708 24.994-60.34 0-11.316 4.493-22.168 12.493-30.17 8.004-8.001 18.854-12.497 30.174-12.497h42.667c33.946 0 66.505-13.486 90.509-37.49s37.491-56.562 37.491-90.51v-384c0-33.95-13.487-66.505-37.491-90.509s-56.563-37.491-90.509-37.491h-597.335c-33.948 0-66.505 13.487-90.51 37.491s-37.49 56.563-37.49 90.509v384c0 33.948 13.486 66.505 37.49 90.51s56.562 37.49 90.51 37.49h42.667c11.316 0 22.168 4.495 30.17 12.497s12.497 18.854 12.497 30.17c0 22.632 8.99 44.337 24.993 60.34zM678.682 746.667h-256.002c0-33.948-13.486-66.505-37.49-90.51s-56.562-37.49-90.51-37.49h-42.667c-11.316 0-22.169-4.495-30.17-12.497s-12.497-18.854-12.497-30.17v-384c0-11.315 4.495-22.17 12.497-30.17s18.854-12.497 30.17-12.497h597.335c11.315 0 22.165 4.497 30.17 12.497 8 8 12.497 18.854 12.497 30.17v384c0 11.316-4.497 22.168-12.497 30.17-8.004 8.001-18.854 12.497-30.17 12.497h-42.667c-33.95 0-66.509 13.486-90.513 37.49s-37.487 56.562-37.487 90.51zM429.999 526.012c32.009 32.007 75.418 49.988 120.683 49.988 45.261 0 88.67-17.981 120.678-49.988 32.004-32.004 49.988-75.413 49.988-120.678s-17.984-88.674-49.988-120.678c-32.009-32.009-75.418-49.988-120.678-49.988-45.265 0-88.674 17.98-120.683 49.988-32.005 32.004-49.986 75.413-49.986 120.678s17.981 88.674 49.986 120.678zM550.682 490.667c-22.635 0-44.339-8.99-60.343-24.994-16-16.004-24.99-37.709-24.99-60.339s8.99-44.335 24.99-60.339c16.004-16.004 37.709-24.994 60.343-24.994 22.63 0 44.335 8.99 60.339 24.994 16 16.004 24.994 37.709 24.994 60.339s-8.994 44.335-24.994 60.339c-16.004 16.004-37.709 24.994-60.339 24.994z" />
<glyph unicode="&#xe918;" glyph-name="card" horiz-adv-x="983" d="M204.8 712.080c-10.863 0-21.282-4.316-28.963-11.997s-11.997-18.1-11.997-28.963v-409.599c0-10.867 4.316-21.283 11.997-28.963 7.682-7.684 18.1-11.997 28.963-11.997h245.76c22.622 0 40.96-18.338 40.96-40.96s-18.338-40.96-40.96-40.96h-245.76c-32.59 0-63.845 12.943-86.889 35.987-23.045 23.048-35.991 54.301-35.991 86.893v409.599c0 32.589 12.946 63.845 35.991 86.889s54.299 35.991 86.889 35.991h573.44c32.592 0 63.844-12.946 86.888-35.991s35.992-54.299 35.992-86.889v-163.839c0-22.622-18.338-40.96-40.96-40.96s-40.96 18.338-40.96 40.96v163.839c0 10.863-4.317 21.282-11.997 28.963s-18.1 11.997-28.963 11.997h-573.44zM245.76 589.2c0 22.621 18.339 40.96 40.96 40.96h122.88c22.622 0 40.96-18.339 40.96-40.96s-18.338-40.959-40.96-40.959h-23.994l93.917-93.917c15.995-15.999 15.995-41.931 0-57.926-15.995-15.999-41.931-15.999-57.926 0l-93.917 93.917v-23.994c0-22.622-18.339-40.96-40.96-40.96s-40.96 18.338-40.96 40.96v122.879zM556.474 401.367c15.364 15.364 36.2 23.994 57.926 23.994h204.8c21.725 0 42.562-8.63 57.926-23.994s23.994-36.2 23.994-57.926v-122.88c0-21.729-8.63-42.566-23.994-57.926-15.364-15.364-36.2-23.994-57.926-23.994h-204.8c-21.725 0-42.562 8.63-57.926 23.994-15.364 15.36-23.994 36.196-23.994 57.926v122.88c0 21.725 8.63 42.562 23.994 57.926zM819.2 343.441h-204.8v-122.88h204.8v122.88z" />
<glyph unicode="&#xe919;" glyph-name="cctv" d="M512 320c25.6 0 42.667 17.067 42.667 42.667s-17.067 42.667-42.667 42.667c-25.6 0-42.667-17.067-42.667-42.667s17.067-42.667 42.667-42.667zM512 149.333c55.467 0 110.933 21.333 149.333 64 38.4 38.4 64 93.867 64 149.333s-21.333 110.933-64 149.333c-38.4 42.667-93.867 64-149.333 64s-110.933-21.333-149.333-64c-42.667-38.4-64-93.867-64-149.333s21.333-110.933 64-149.333c38.4-42.667 93.867-64 149.333-64zM422.4 452.267c25.6 25.6 55.467 38.4 89.6 38.4s68.267-12.8 89.6-38.4c25.6-25.6 38.4-55.467 38.4-89.6s-12.8-68.267-38.4-89.6c-21.333-25.6-55.467-38.4-89.6-38.4s-68.267 12.8-89.6 38.4c-25.6 21.333-38.4 55.467-38.4 89.6s12.8 68.267 38.4 89.6zM853.333 874.667h-682.667c-21.333 0-42.667-8.533-59.733-25.6s-25.6-38.4-25.6-59.733v-85.333c0-21.333 8.533-42.667 25.6-59.733s38.4-25.6 59.733-25.6v-256c0-89.6 34.133-179.2 98.133-243.2s153.6-98.133 243.2-98.133c89.6 0 179.2 34.133 243.2 98.133s98.133 149.333 98.133 243.2v256c21.333 0 42.667 8.533 59.733 25.6s25.6 38.4 25.6 59.733v85.333c0 21.333-8.533 42.667-25.6 59.733s-38.4 25.6-59.733 25.6zM768 362.667c0-68.267-25.6-132.267-76.8-179.2-46.933-51.2-110.933-76.8-179.2-76.8s-132.267 25.6-179.2 76.8c-51.2 46.933-76.8 110.933-76.8 179.2v256h512v-256zM853.333 704h-682.667v85.333h682.667v-85.333z" />
<glyph unicode="&#xe91a;" glyph-name="chart" horiz-adv-x="983" d="M653.505 807.878c11.497 0.521 22.684-3.817 30.822-11.955l163.84-163.84c15.995-15.996 15.995-41.93 0-57.926-15.999-15.996-41.931-15.996-57.926 0l-132.125 132.125-176.087-211.304c-12.169-14.602-32.784-18.911-49.787-10.412l-133.263 66.632-102.369-136.493c-13.573-18.096-39.247-21.766-57.344-8.192s-21.765 39.248-8.192 57.344l122.88 163.84c11.877 15.836 33.38 20.913 51.086 12.060l134.825-67.412 184.029 220.838c7.369 8.841 18.117 14.175 29.61 14.696zM653.099 562.097c11.633 0.644 22.987-3.696 31.228-11.935l163.84-163.84c7.68-7.68 11.997-18.1 11.997-28.963v-204.8c0-22.622-18.342-40.96-40.96-40.96h-655.362c-15.106 0-28.986 8.315-36.114 21.635-7.127 13.316-6.346 29.479 2.033 42.045l163.84 245.76c11.459 17.187 33.922 23.155 52.398 13.914l134.223-67.109 143.155 178.942c7.279 9.098 18.088 14.666 29.721 15.31zM658.76 459.878l-135.254-169.066c-12.063-15.081-33.026-19.685-50.303-11.047l-131.497 65.749-101.329-151.994h537.867v146.874l-119.484 119.484z" />
<glyph unicode="&#xe91b;" glyph-name="chart_bar" horiz-adv-x="983" d="M741.581 788.72c-1.139 0-2.236-0.453-3.039-1.26-0.807-0.807-1.262-1.901-1.262-3.041v-646.757c0-1.143 0.455-2.236 1.262-3.043 0.803-0.807 1.901-1.257 3.039-1.257h73.318c1.139 0 2.236 0.451 3.039 1.257 0.807 0.807 1.262 1.901 1.262 3.043v646.757c0 1.141-0.455 2.235-1.262 3.041-0.803 0.807-1.901 1.26-3.039 1.26h-73.318zM680.612 845.387c16.171 16.169 38.101 25.253 60.969 25.253h73.318c22.868 0 44.798-9.084 60.969-25.253 16.167-16.17 25.252-38.1 25.252-60.967v-646.757c0-22.868-9.085-44.798-25.252-60.969-16.171-16.171-38.101-25.252-60.969-25.252h-73.318c-22.868 0-44.798 9.081-60.969 25.252-16.167 16.171-25.252 38.101-25.252 60.969v646.757c0 22.867 9.085 44.798 25.252 60.967zM454.861 542.962c-0.565 0-1.122-0.115-1.647-0.328-0.52-0.217-0.995-0.532-1.393-0.934-0.401-0.397-0.717-0.872-0.934-1.397-0.217-0.52-0.328-1.081-0.328-1.642v-400.998c0-1.143 0.455-2.236 1.262-3.043 0.803-0.807 1.901-1.257 3.039-1.257h73.318c1.139 0 2.236 0.451 3.039 1.257 0.807 0.807 1.262 1.901 1.262 3.043v400.998c0 0.561-0.111 1.122-0.328 1.642-0.217 0.524-0.532 0.999-0.934 1.397-0.397 0.401-0.872 0.717-1.393 0.934-0.524 0.213-1.081 0.328-1.647 0.328h-73.318zM421.868 618.317c10.457 4.333 21.672 6.563 32.993 6.563h73.318c11.321 0 22.536-2.23 32.993-6.563 10.461-4.333 19.968-10.684 27.976-18.69 8.004-8.006 14.356-17.511 18.69-27.972s6.562-21.672 6.562-32.994v-400.998c0-22.868-9.085-44.798-25.252-60.969-16.171-16.171-38.101-25.252-60.969-25.252h-73.318c-22.868 0-44.798 9.081-60.967 25.252s-25.253 38.101-25.253 60.969v400.998c0 11.321 2.23 22.533 6.563 32.994s10.684 19.966 18.69 27.972c8.006 8.006 17.513 14.357 27.974 18.69zM117.911 261.21c23.045 23.044 54.299 35.992 86.889 35.992s63.845-12.947 86.889-35.992c23.045-23.044 35.991-54.301 35.991-86.888 0-32.592-12.946-63.848-35.991-86.893s-54.299-35.987-86.889-35.987c-32.59 0-63.845 12.943-86.889 35.987s-35.991 54.301-35.991 86.893c0 32.588 12.946 63.844 35.991 86.888zM204.8 215.282c-10.863 0-21.282-4.317-28.963-11.997-7.681-7.684-11.997-18.1-11.997-28.963 0-10.867 4.316-21.283 11.997-28.963 7.682-7.684 18.1-11.997 28.963-11.997s21.282 4.313 28.963 11.997c7.681 7.68 11.997 18.096 11.997 28.963 0 10.863-4.316 21.279-11.997 28.963-7.682 7.68-18.1 11.997-28.963 11.997z" />
<glyph unicode="&#xe91c;" glyph-name="chart_donut" horiz-adv-x="983" d="M334.773 817.701c49.695 20.584 102.958 31.179 156.747 31.179s107.053-10.595 156.746-31.179c49.697-20.584 94.851-50.755 132.887-88.79s68.202-83.189 88.789-132.884c20.582-49.694 31.179-102.959 31.179-156.747s-10.596-107.053-31.179-156.746c-20.586-49.697-50.754-94.851-88.789-132.887-38.035-38.031-83.19-68.202-132.887-88.789-49.693-20.582-102.957-31.179-156.746-31.179s-107.052 10.596-156.747 31.179c-49.695 20.586-94.849 50.758-132.884 88.789-38.035 38.035-68.206 83.19-88.79 132.887-20.584 49.693-31.179 102.957-31.179 156.746s10.595 107.053 31.179 156.747c20.584 49.695 50.756 94.849 88.79 132.884s83.189 68.206 132.884 88.79zM450.56 764.39c-28.959-3.648-57.36-11.157-84.438-22.373-39.756-16.468-75.879-40.604-106.307-71.032s-54.565-66.551-71.032-106.307c-16.467-39.755-24.943-82.366-24.943-125.398s8.476-85.643 24.943-125.399c16.468-39.756 40.604-75.878 71.032-106.303 30.428-30.429 66.551-54.567 106.307-71.033 39.756-16.47 82.365-24.945 125.398-24.945s85.643 8.475 125.399 24.945c39.756 16.466 75.878 40.604 106.308 71.033 30.425 30.425 54.563 66.548 71.029 106.303 11.219 27.079 18.727 55.48 22.376 84.439h-124.449c-7.971-39.051-27.242-75.248-55.849-103.854-38.404-38.408-90.497-59.986-144.814-59.986s-106.408 21.578-144.815 59.986c-38.408 38.408-59.985 90.497-59.985 144.814s21.577 106.41 59.985 144.816c28.606 28.606 64.804 47.875 103.855 55.848v124.447zM532.48 764.39v-124.447c39.051-7.972 75.252-27.242 103.854-55.848 28.606-28.606 47.878-64.8 55.849-103.856h124.449c-3.65 28.959-11.158 57.36-22.376 84.438-16.466 39.756-40.604 75.879-71.029 106.307-30.429 30.428-66.552 54.565-106.308 71.032-27.079 11.216-55.48 18.724-84.439 22.373zM491.52 562.16c-32.588 0-63.844-12.948-86.889-35.992s-35.991-54.297-35.991-86.888c0-32.588 12.946-63.844 35.991-86.888s54.301-35.992 86.889-35.992c32.588 0 63.844 12.947 86.888 35.992s35.992 54.301 35.992 86.888c0 32.592-12.947 63.844-35.992 86.888s-54.301 35.992-86.888 35.992z" />
<glyph unicode="&#xe91d;" glyph-name="chart_pie" horiz-adv-x="983" d="M334.773 817.701c49.695 20.584 102.958 31.179 156.747 31.179s107.053-10.595 156.746-31.179c49.697-20.584 94.851-50.755 132.887-88.79s68.202-83.189 88.789-132.884c20.582-49.694 31.179-102.959 31.179-156.747s-10.596-107.053-31.179-156.746c-20.586-49.697-50.754-94.851-88.789-132.887-38.035-38.031-83.19-68.202-132.887-88.789-49.693-20.582-102.957-31.179-156.746-31.179s-107.052 10.596-156.747 31.179c-49.695 20.586-94.849 50.758-132.884 88.789-38.035 38.035-68.206 83.19-88.79 132.887-20.584 49.693-31.179 102.957-31.179 156.746s10.595 107.053 31.179 156.747c20.584 49.695 50.756 94.849 88.79 132.884s83.189 68.206 132.884 88.79zM450.56 764.39c-28.959-3.648-57.36-11.157-84.438-22.373-39.756-16.468-75.879-40.604-106.307-71.032s-54.565-66.551-71.032-106.307c-16.467-39.755-24.943-82.366-24.943-125.398s8.476-85.643 24.943-125.399c16.468-39.756 40.604-75.878 71.032-106.303 30.428-30.429 66.551-54.567 106.307-71.033 39.756-16.47 82.365-24.945 125.398-24.945s85.643 8.475 125.399 24.945c39.756 16.466 75.878 40.604 106.308 71.033 30.425 30.425 54.563 66.548 71.029 106.303 11.219 27.079 18.727 55.48 22.376 84.439h-325.112c-22.622 0-40.96 18.338-40.96 40.96v325.11zM532.48 764.39v-284.15h284.152c-3.65 28.959-11.158 57.36-22.376 84.438-16.466 39.756-40.604 75.879-71.029 106.307-30.429 30.428-66.552 54.565-106.308 71.032-27.079 11.216-55.48 18.724-84.439 22.373z" />
<glyph unicode="&#xe91e;" glyph-name="chart_radar" horiz-adv-x="1126" d="M921.605-28.14l179.2 563.199c5.12 20.48 0 46.080-20.48 56.32l-486.4 358.4c-20.48 15.36-40.96 15.36-61.44 0l-486.398-358.4c-15.36-10.24-25.6-35.84-20.48-56.32l179.2-563.199c10.24-20.48 30.72-35.84 51.2-35.84h614.398c20.48 0 40.96 15.36 51.2 35.84zM614.405 806.42l322.56-240.64-97.28-30.72-225.28 168.96v102.4zM614.405 576.020l107.52-76.8-107.52-30.72v107.52zM757.765 401.94l-51.2-112.64-56.32 76.8 107.52 35.84zM563.205 309.78l51.2-66.56h-102.4l51.2 66.56zM404.487 499.22l107.518 76.8v-112.64l-107.518 35.84zM481.287 371.22l-71.68-97.28-51.2 133.12 122.88-35.84zM512.005 806.42v-102.4l-230.398-163.84-92.16 30.72 322.558 235.52zM276.487 99.86l-122.88 373.759 81.92-25.6 97.28-266.239-56.32-81.92zM358.407 38.42l76.8 102.4h255.998l76.8-102.4h-409.598zM849.925 99.86l-76.8 102.4 112.64 245.759 87.040 25.6-122.88-373.759z" />
<glyph unicode="&#xe91f;" glyph-name="check" horiz-adv-x="983" d="M848.163 688.463c15.995-15.996 15.995-41.93 0-57.926l-409.6-409.599c-15.995-15.999-41.93-15.999-57.926 0l-204.8 204.8c-15.996 15.995-15.996 41.931 0 57.926s41.93 15.995 57.926 0l175.837-175.837 380.637 380.636c15.995 15.996 41.931 15.996 57.926 0z" />
<glyph unicode="&#xe920;" glyph-name="chevron_left" horiz-adv-x="983" d="M643.363 733.903c15.995-15.996 15.995-41.93 0-57.926l-216.797-216.799 216.797-216.793c15.995-15.999 15.995-41.931 0-57.93-15.995-15.995-41.931-15.995-57.926 0l-245.76 245.76c-15.996 15.999-15.996 41.931 0 57.93l245.76 245.758c15.995 15.996 41.931 15.996 57.926 0z" />
<glyph unicode="&#xe921;" glyph-name="chevron_right" horiz-adv-x="983" d="M339.677 733.903c15.996 15.996 41.93 15.996 57.926 0l245.76-245.758c15.995-15.999 15.995-41.931 0-57.93l-245.76-245.76c-15.996-15.995-41.93-15.995-57.926 0-15.996 15.999-15.996 41.931 0 57.93l216.798 216.793-216.798 216.799c-15.996 15.996-15.996 41.93 0 57.926z" />
<glyph unicode="&#xe922;" glyph-name="click" horiz-adv-x="983" d="M491.52 866.080c22.622 0 40.96-18.338 40.96-40.96v-122.88c0-22.621-18.338-40.96-40.96-40.96s-40.96 18.339-40.96 40.96v122.88c0 22.622 18.338 40.96 40.96 40.96zM200.412 747.587c15.996 15.996 41.93 15.996 57.926 0l90.112-90.112c15.996-15.996 15.996-41.93 0-57.926s-41.93-15.996-57.926 0l-90.112 90.112c-15.996 15.996-15.996 41.93 0 57.926zM782.627 747.587c15.995-15.996 15.995-41.93 0-57.926l-90.112-90.112c-15.995-15.996-41.931-15.996-57.926 0s-15.995 41.93 0 57.926l90.112 90.112c15.995 15.996 41.931 15.996 57.926 0zM462.557 485.442c10.969 10.973 27.197 14.803 41.914 9.896l368.64-122.88c15.716-5.239 26.73-19.427 27.906-35.955 1.176-16.523-7.721-32.129-22.54-39.539l-151.626-75.813-75.817-151.63c-7.41-14.815-23.011-23.712-39.539-22.54-16.523 1.176-30.716 12.19-35.955 27.906l-122.88 368.64c-4.907 14.717-1.073 30.945 9.896 41.914zM81.92 456.479c0 22.622 18.339 40.96 40.96 40.96h122.88c22.621 0 40.96-18.338 40.96-40.96s-18.339-40.96-40.96-40.96h-122.88c-22.621 0-40.96 18.338-40.96 40.96zM556.282 391.717l65.704-197.112 37.7 75.391c3.961 7.93 10.392 14.356 18.317 18.321l75.391 37.695-197.112 65.704zM348.45 313.41c15.996-15.995 15.996-41.927 0-57.926l-90.112-90.112c-15.996-15.995-41.93-15.995-57.926 0-15.996 15.999-15.996 41.931 0 57.926l90.112 90.112c15.996 15.999 41.93 15.999 57.926 0z" />
<glyph unicode="&#xe923;" glyph-name="clipboard" horiz-adv-x="983" d="M450.56 768.8c-10.863 0-21.283-4.316-28.963-11.997s-11.997-18.1-11.997-28.963c0-10.863 4.317-21.282 11.997-28.963s18.1-11.997 28.963-11.997h81.92c10.863 0 21.283 4.316 28.963 11.997s11.997 18.1 11.997 28.963c0 10.863-4.317 21.282-11.997 28.963s-18.1 11.997-28.963 11.997h-81.92zM363.671 814.729c23.045 23.045 54.301 35.991 86.889 35.991h81.92c32.588 0 63.844-12.946 86.888-35.991 13.083-13.083 22.913-28.812 28.963-45.929h47.989c32.588 0 63.844-12.946 86.888-35.991s35.992-54.299 35.992-86.889v-491.521c0-32.588-12.947-63.844-35.992-86.888s-54.297-35.992-86.888-35.992h-409.6c-32.59 0-63.845 12.947-86.889 35.992s-35.991 54.301-35.991 86.888v491.521c0 32.59 12.946 63.845 35.991 86.889s54.299 35.991 86.889 35.991h47.988c6.052 17.117 15.881 32.847 28.963 45.929zM334.708 686.88h-47.988c-10.863 0-21.282-4.316-28.963-11.997s-11.997-18.1-11.997-28.963v-491.521c0-10.863 4.316-21.279 11.997-28.963 7.682-7.68 18.1-11.997 28.963-11.997h409.6c10.863 0 21.283 4.317 28.963 11.997 7.68 7.684 11.997 18.1 11.997 28.963v491.521c0 10.863-4.317 21.282-11.997 28.963s-18.1 11.997-28.963 11.997h-47.989c-6.050-17.117-15.88-32.846-28.963-45.929-23.044-23.045-54.301-35.991-86.888-35.991h-81.92c-32.588 0-63.845 12.946-86.889 35.991-13.083 13.083-22.911 28.812-28.963 45.929z" />
<glyph unicode="&#xe924;" glyph-name="coins" d="M840.533 490.667c-55.467 25.6-123.733 42.667-200.533 42.667s-145.067-17.067-200.533-42.667c-51.2-25.6-98.133-68.267-98.133-128v-170.667c0-59.733 46.933-102.4 98.133-128 55.467-25.6 123.733-42.667 200.533-42.667s145.067 17.067 200.533 42.667c51.2 25.6 98.133 68.267 98.133 128v170.667c0 59.733-46.933 102.4-98.133 128zM853.333 192c0-8.533-8.533-29.867-51.2-51.2-38.4-21.333-98.133-34.133-162.133-34.133s-123.733 12.8-162.133 34.133c-42.667 21.333-51.2 42.667-51.2 51.2v46.933c4.267-4.267 8.533-4.267 12.8-8.533 55.467-25.6 123.733-42.667 200.533-42.667s145.067 17.067 200.533 42.667c4.267 4.267 8.533 4.267 12.8 8.533v-46.933zM802.133 311.467c-38.4-21.333-98.133-34.133-162.133-34.133s-123.733 12.8-162.133 34.133c-42.667 21.333-51.2 42.667-51.2 51.2s8.533 29.867 51.2 51.2c38.4 21.333 98.133 34.133 162.133 34.133s123.733-12.8 162.133-34.133c42.667-21.333 51.2-42.667 51.2-51.2s-8.533-29.867-51.2-51.2zM243.2 550.433c85.333-25.599 192-25.599 281.6 0 42.667 12.8 81.067 29.867 110.933 55.467 25.6 25.6 46.933 59.733 46.933 98.133s-21.333 72.533-46.933 98.133c-29.867 25.6-68.267 42.667-110.933 55.467-85.333 25.6-192 25.6-281.6 0-42.667-12.8-81.067-29.867-110.933-55.467-25.6-25.6-46.933-59.733-46.933-98.133v-426.666c0-34.133 17.067-59.733 38.4-81.067 21.333-17.067 46.933-34.133 72.533-46.933 21.333-8.533 46.933 0 55.467 21.333s0 46.933-21.333 55.467c-25.6 12.8-42.667 21.333-51.2 29.867-8.533 12.8-8.533 17.067-8.533 21.333v102.4c8.533-4.267 17.067-8.533 25.6-12.8 21.333-8.533 46.933 0 55.467 21.333s0 46.933-21.333 55.467c-25.6 12.8-42.667 21.333-51.2 29.867s-8.533 12.8-8.533 17.067v89.599c21.333-8.533 46.933-21.333 72.533-29.867zM192 733.9c17.067 12.8 42.667 29.867 76.8 38.4 72.533 21.333 162.133 21.333 230.4 0 34.133-8.533 59.733-25.6 76.8-38.4s21.333-21.333 21.333-29.867c0-8.533-4.267-17.067-21.333-29.867s-42.667-29.867-76.8-38.4c-72.533-21.333-157.867-21.333-230.4 0-38.4 8.533-64 21.333-76.8 38.4-17.067 12.8-21.333 21.333-21.333 29.867s4.267 17.067 21.333 29.867z" />
<glyph unicode="&#xe925;" glyph-name="computer_cam_off" horiz-adv-x="983" d="M311.151 786.833c62.994 41.542 138.397 60.069 213.468 52.454s145.215-40.908 198.586-94.254c53.367-53.346 86.688-123.477 94.335-198.548 7.647-75.067-10.85-150.479-52.367-213.488-12.444-18.891-37.847-24.113-56.738-11.67-18.891 12.448-24.113 37.851-11.665 56.738 31.134 47.26 45.007 103.817 39.272 160.121-5.734 56.301-30.724 108.899-70.75 148.908s-92.635 64.979-148.943 70.691c-56.304 5.712-112.854-8.184-160.099-39.34-18.885-12.454-44.29-7.24-56.744 11.645s-7.24 44.29 11.645 56.744zM93.917 828.869c15.996 15.996 41.93 15.996 57.926 0l247.772-247.773c2.32-1.864 4.412-3.964 6.252-6.252l148.715-148.713c1.151-1.028 2.249-2.126 3.285-3.285l125.805-125.805c0.43-0.41 0.848-0.831 1.257-1.262l204.194-204.19c15.995-15.999 15.995-41.931 0-57.926-15.995-15.999-41.931-15.999-57.926 0l-46.752 46.748c-1.757-5.96-4.194-11.727-7.283-17.183-7.135-12.607-17.49-23.097-29.999-30.396-12.513-7.303-26.739-11.158-41.226-11.166h-428.802c-14.487 0.008-28.745 3.863-41.257 11.166s-22.865 17.789-30.001 30.396c-7.136 12.607-10.802 26.886-10.623 41.37 0.179 14.488 4.197 28.668 11.643 41.095l71.167 118.645c-6.328 5.427-12.465 11.108-18.395 17.039-53.337 53.334-86.64 123.441-94.287 198.484-6.504 63.816 5.886 127.878 35.251 184.363l-106.718 106.717c-15.996 15.996-15.996 41.93 0 57.926zM262.431 602.429c-14.084-36.089-19.527-75.237-15.55-114.264 5.736-56.279 30.712-108.859 70.715-148.861 40.003-40.006 92.581-64.983 148.865-70.717 39.023-3.977 78.172 1.466 114.262 15.553l-66.716 66.712c-20.718-2.879-41.878-1.778-62.325 3.338-28.84 7.217-55.175 22.143-76.18 43.18-21.005 21.041-35.89 47.399-43.060 76.251-5.061 20.369-6.143 41.439-3.274 62.071l-66.737 66.738zM636.477 219.279c-54.989-27.161-116.773-38.461-178.323-32.19-39.121 3.985-76.897 14.946-111.657 32.080l-69.33-115.581h428.704l-69.394 115.692zM444.338 669.762c28.344 8.523 58.466 9.207 87.167 1.983 28.705-7.225 54.911-22.090 75.846-43.016 20.931-20.926 35.803-47.131 43.037-75.831 7.229-28.699 6.554-58.826-1.962-87.17-6.509-21.668-29.344-33.952-51.012-27.447-21.664 6.509-33.952 29.348-27.443 51.012 4.256 14.176 4.596 29.237 0.979 43.586-3.617 14.352-11.051 27.455-21.52 37.917-10.465 10.463-23.568 17.895-37.921 21.508-14.348 3.612-29.413 3.27-43.586-0.992-21.664-6.513-44.503 5.768-51.016 27.431-6.517 21.663 5.767 44.505 27.431 51.019z" />
<glyph unicode="&#xe926;" glyph-name="computer_cog" d="M896 405.333c25.6 0 42.667 17.067 42.667 42.667v341.333c0 21.333-8.533 42.667-25.6 59.733s-38.4 25.6-59.733 25.6h-682.667c-21.333 0-42.667-8.533-59.733-25.6s-25.6-38.4-25.6-59.733v-512c0-21.333 8.533-42.667 25.6-59.733s38.4-25.6 59.733-25.6h209.067l-8.533-85.333h-29.867c-25.6 0-42.667-17.067-42.667-42.667s17.067-42.667 42.667-42.667h170.667c25.6 0 42.667 17.067 42.667 42.667s-17.067 42.667-42.667 42.667h-59.733l8.533 85.333h51.2c25.6 0 42.667 17.067 42.667 42.667s-17.067 42.667-42.667 42.667h-341.333v85.333h512c25.6 0 42.667 17.067 42.667 42.667s-17.067 42.667-42.667 42.667h-512v341.333h682.667v-341.333c0-25.6 17.067-42.667 42.667-42.667zM960 110.933l-21.333 17.067c0 8.533 4.267 17.067 4.267 21.333 0 8.533 0 17.067-4.267 21.333l25.6 12.8c21.333 12.8 25.6 38.4 17.067 59.733-12.8 21.333-38.4 25.6-59.733 17.067l-25.6-12.8c-12.8 8.533-25.6 17.067-38.4 21.333v29.867c0 25.6-17.067 42.667-42.667 42.667s-42.667-17.067-42.667-42.667v-29.867c-12.8-4.267-29.867-12.8-38.4-21.333l-25.6 12.8c-21.333 12.8-46.933 4.267-59.733-17.067s-4.267-46.933 17.067-59.733l25.6-12.8c0-8.533-4.267-17.067-4.267-21.333s0-17.067 4.267-21.333l-25.6-12.8c-21.333-12.8-25.6-38.4-17.067-59.733s38.4-25.6 59.733-17.067l25.6 12.8c12.8-8.533 25.6-17.067 38.4-21.333v-29.867c0-25.6 17.067-42.667 42.667-42.667s42.667 17.067 42.667 42.667v29.867c12.8 4.267 29.867 12.8 38.4 21.333l25.6-12.8c21.333-12.8 46.933-4.267 59.733 17.067 8.533 17.067 0 42.667-21.333 55.467zM849.067 128c0-4.267-4.267-8.533-8.533-8.533-8.533-8.533-17.067-12.8-29.867-12.8s-21.333 4.267-29.867 12.8c-4.267 4.267-4.267 4.267-4.267 8.533-8.533 8.533-8.533 12.8-8.533 21.333s0 12.8 4.267 21.333c0 4.267 4.267 4.267 4.267 8.533 8.533 8.533 17.067 12.8 29.867 12.8s21.333-4.267 29.867-12.8c4.267-4.267 4.267-4.267 8.533-8.533 8.533-8.533 8.533-12.8 8.533-21.333s0-12.8-4.267-21.333z" />
<glyph unicode="&#xe927;" glyph-name="cooker" d="M384 704c-25.6 0-42.667-17.067-42.667-42.667s17.067-42.667 42.667-42.667c25.6 0 42.667 17.067 42.667 42.667s-17.067 42.667-42.667 42.667zM384 277.333h256c25.6 0 42.667 17.067 42.667 42.667s-17.067 42.667-42.667 42.667h-256c-25.6 0-42.667-17.067-42.667-42.667s17.067-42.667 42.667-42.667zM640 704c-25.6 0-42.667-17.067-42.667-42.667s17.067-42.667 42.667-42.667c25.6 0 42.667 17.067 42.667 42.667s-17.067 42.667-42.667 42.667zM512 704c-25.6 0-42.667-17.067-42.667-42.667s17.067-42.667 42.667-42.667c25.6 0 42.667 17.067 42.667 42.667s-17.067 42.667-42.667 42.667zM725.333 874.667h-426.667c-34.133 0-68.267-12.8-89.6-38.4s-38.4-55.467-38.4-89.6v-597.333c0-34.133 12.8-68.267 38.4-89.6 21.333-25.6 55.467-38.4 89.6-38.4h426.667c34.133 0 68.267 12.8 89.6 38.4 25.6 25.6 38.4 55.467 38.4 89.6v597.333c0 34.133-12.8 68.267-38.4 89.6-21.333 25.6-55.467 38.4-89.6 38.4zM768 149.333c0-12.8-4.267-21.333-12.8-29.867s-17.067-12.8-29.867-12.8h-426.667c-12.8 0-21.333 4.267-29.867 12.8s-12.8 17.067-12.8 29.867v298.667h512v-298.667zM768 533.333h-512v213.333c0 12.8 4.267 21.333 12.8 29.867s17.067 12.8 29.867 12.8h426.667c12.8 0 21.333-4.267 29.867-12.8s12.8-17.067 12.8-29.867v-213.333z" />
<glyph unicode="&#xe928;" glyph-name="cpu" horiz-adv-x="983" d="M409.6 840.88c22.622 0 40.96-18.339 40.96-40.96v-40.96h81.92v40.96c0 22.621 18.338 40.96 40.96 40.96s40.96-18.339 40.96-40.96v-40.96h122.88c21.725 0 42.562-8.631 57.926-23.994s23.994-36.2 23.994-57.926v-122.88h40.96c22.622 0 40.96-18.338 40.96-40.96s-18.338-40.96-40.96-40.96h-40.96v-81.92h40.96c22.622 0 40.96-18.338 40.96-40.96s-18.338-40.96-40.96-40.96h-40.96v-122.88c0-21.725-8.63-42.562-23.994-57.926s-36.2-23.994-57.926-23.994h-122.88v-40.96c0-22.622-18.338-40.96-40.96-40.96s-40.96 18.338-40.96 40.96v40.96h-81.92v-40.96c0-22.622-18.338-40.96-40.96-40.96s-40.96 18.338-40.96 40.96v40.96h-122.88c-21.726 0-42.563 8.63-57.926 23.994s-23.994 36.2-23.994 57.926v122.88h-40.96c-22.621 0-40.96 18.338-40.96 40.96s18.339 40.96 40.96 40.96h40.96v81.92h-40.96c-22.621 0-40.96 18.338-40.96 40.96s18.339 40.96 40.96 40.96h40.96v122.88c0 21.726 8.631 42.563 23.994 57.926s36.2 23.994 57.926 23.994h122.88v40.96c0 22.621 18.339 40.96 40.96 40.96zM245.76 677.040v-491.52h491.52v491.52h-491.52zM327.68 554.16c0 22.621 18.339 40.96 40.96 40.96h245.76c22.622 0 40.96-18.339 40.96-40.96v-245.76c0-22.622-18.338-40.96-40.96-40.96h-245.76c-22.621 0-40.96 18.338-40.96 40.96v245.76zM409.6 513.2v-163.84h163.84v163.84h-163.84z" />
<glyph unicode="&#xe929;" glyph-name="database" d="M768 836.267c-68.267 25.6-162.133 38.4-256 38.4s-187.733-12.8-256-38.4c-34.133-12.8-64-29.867-89.6-51.2-21.333-21.333-38.4-46.933-38.4-81.067v-512c0-34.133 17.067-59.733 38.4-81.067s51.2-38.4 89.6-51.2c68.267-25.6 162.133-38.4 256-38.4s187.733 12.8 256 38.4c34.133 12.8 64 29.867 89.6 51.2 21.333 21.333 38.4 46.933 38.4 81.067v512c0 34.133-17.067 59.733-38.4 81.067-25.6 21.333-55.467 38.4-89.6 51.2zM810.667 192c0 0 0-8.533-12.8-17.067s-29.867-21.333-59.733-34.133c-59.733-21.333-140.8-34.133-226.133-34.133s-166.4 12.8-226.133 34.133c-29.867 12.8-46.933 21.333-59.733 34.133-12.8 8.533-12.8 17.067-12.8 17.067v145.067c12.8-8.533 25.6-12.8 42.667-17.067 68.267-25.6 162.133-38.4 256-38.4s187.733 12.8 256 38.4c17.067 4.267 29.867 12.8 42.667 17.067v-145.067zM810.667 448c0 0 0-8.533-12.8-17.067s-29.867-21.333-59.733-34.133c-59.733-21.333-140.8-34.133-226.133-34.133s-166.4 12.8-226.133 34.133c-29.867 12.8-46.933 21.333-59.733 34.133-12.8 8.533-12.8 17.067-12.8 17.067v145.067c12.8-8.533 25.6-12.8 42.667-17.067 68.267-29.867 162.133-42.667 256-42.667s187.733 12.8 256 38.4c17.067 4.267 29.867 12.8 42.667 17.067v-140.8zM797.867 686.933c-12.8-8.533-29.867-21.333-59.733-34.133-59.733-21.333-140.8-34.133-226.133-34.133s-166.4 12.8-226.133 34.133c-29.867 12.8-46.933 21.333-59.733 34.133-12.8 8.533-12.8 17.067-12.8 17.067s0 8.533 12.8 17.067c12.8 12.8 29.867 21.333 59.733 34.133 59.733 21.333 140.8 34.133 226.133 34.133s166.4-12.8 226.133-34.133c29.867-12.8 46.933-21.333 59.733-34.133 12.8-8.533 12.8-17.067 12.8-17.067s0-8.533-12.8-17.067z" />
<glyph unicode="&#xe92a;" glyph-name="database_cog" horiz-adv-x="983" d="M245.438 829.484c64.976 24.365 151.99 38.596 246.082 38.596s181.105-14.232 246.084-38.596c32.334-12.126 61.35-27.553 83.018-46.762 21.619-19.167 39.539-45.594 39.539-78.482v-225.278c0-22.622-18.338-40.96-40.96-40.96s-40.96 18.338-40.96 40.96v118.118c-12.661-6.702-26.325-12.716-40.636-18.083-64.979-24.365-151.99-38.595-246.084-38.595-94.092 0-181.105 14.23-246.082 38.595-14.313 5.367-27.976 11.381-40.638 18.083v-138.598c0-1.049 0.419-6.951 11.965-17.187 11.498-10.191 30.473-21.242 57.436-31.355 53.623-20.107 130.449-33.378 217.319-33.378 8.221 0 16.351 0.115 24.248 0.385 22.61 0.766 41.562-16.937 42.328-39.547 0.77-22.606-16.937-41.558-39.543-42.328-8.978-0.303-18.051-0.43-27.034-0.43-94.092 0-181.105 14.23-246.082 38.593-14.313 5.37-27.976 11.383-40.638 18.084v-138.596c0-1.049 0.419-6.951 11.965-17.187 11.498-10.191 30.473-21.242 57.436-31.355 53.623-20.107 130.449-33.378 217.319-33.378 22.622 0 40.96-18.342 40.96-40.96 0-22.622-18.338-40.96-40.96-40.96-94.092 0-181.105 14.23-246.082 38.593-32.337 12.128-61.352 27.554-83.018 46.764-21.62 19.165-39.54 45.593-39.54 78.483v491.518c0 32.888 17.92 59.315 39.54 78.482 21.667 19.209 50.681 34.636 83.018 46.762zM204.8 704.24c0-1.047 0.419-6.948 11.965-17.184 11.498-10.194 30.473-21.245 57.436-31.355 53.623-20.108 130.449-33.381 217.319-33.381 86.868 0 163.697 13.273 217.317 33.381 26.964 10.111 45.941 21.162 57.438 31.355 11.547 10.236 11.964 16.137 11.964 17.184s-0.418 6.948-11.964 17.184c-11.497 10.194-30.474 21.245-57.438 31.355-53.621 20.108-130.449 33.381-217.317 33.381-86.87 0-163.696-13.273-217.319-33.381-26.963-10.111-45.938-21.162-57.436-31.355-11.545-10.236-11.965-16.137-11.965-17.184zM778.281 356.082c-22.622 0-40.96-18.342-40.96-40.96v-27.509c-14.148-5.001-27.345-12.583-38.883-22.446l-23.839 13.75c-19.595 11.305-44.642 4.588-55.947-15.008s-4.583-44.642 15.012-55.947l23.806-13.738c-1.368-7.356-2.068-14.873-2.068-22.462s0.7-15.11 2.068-22.467l-23.806-13.738c-19.595-11.301-26.317-36.352-15.012-55.947 11.305-19.591 36.352-26.313 55.947-15.008l23.839 13.75c11.538-9.863 24.736-17.445 38.883-22.446v-27.505c0-22.622 18.338-40.96 40.96-40.96s40.96 18.338 40.96 40.96v27.505c14.152 5.005 27.357 12.591 38.9 22.462l23.863-13.767c19.595-11.305 44.642-4.583 55.947 15.008 11.305 19.595 4.583 44.646-15.012 55.947l-23.847 13.758c1.368 7.352 2.068 14.86 2.068 22.446s-0.7 15.098-2.068 22.454l23.818 13.75c19.591 11.313 26.305 36.364 14.991 55.955-11.309 19.591-36.36 26.3-55.951 14.991l-23.818-13.754c-11.543 9.867-24.744 17.453-38.892 22.454v27.509c0 22.618-18.338 40.96-40.96 40.96zM742.207 191.164c0.221 0.356 0.438 0.721 0.651 1.085 0.205 0.352 0.401 0.709 0.594 1.065 1.647 2.666 3.613 5.157 5.865 7.41 7.68 7.68 18.1 11.997 28.963 11.997s21.283-4.317 28.963-11.997c2.482-2.482 4.612-5.251 6.361-8.229 0.049-0.086 0.098-0.172 0.147-0.258 0.049-0.082 0.094-0.164 0.143-0.25 3.473-6.111 5.345-13.074 5.345-20.226 0-7.16-1.876-14.127-5.353-20.247-0.049-0.082-0.094-0.164-0.143-0.246-0.041-0.078-0.086-0.152-0.127-0.225-1.749-2.986-3.887-5.759-6.373-8.245-7.68-7.684-18.1-11.997-28.963-11.997s-21.283 4.313-28.963 11.997c-2.253 2.253-4.219 4.739-5.865 7.406-0.193 0.356-0.389 0.713-0.594 1.065-0.213 0.365-0.43 0.729-0.651 1.085-3.178 5.915-4.887 12.571-4.887 19.407 0 6.832 1.708 13.492 4.887 19.403z" />
<glyph unicode="&#xe92b;" glyph-name="database_edit" horiz-adv-x="983" d="M245.438 829.484c64.976 24.365 151.99 38.596 246.082 38.596s181.105-14.232 246.084-38.596c32.334-12.126 61.35-27.553 83.018-46.762 21.619-19.167 39.539-45.594 39.539-78.482v-245.758c0-22.622-18.338-40.96-40.96-40.96s-40.96 18.338-40.96 40.96v138.598c-12.661-6.702-26.325-12.716-40.636-18.083-64.979-24.365-151.99-38.595-246.084-38.595-94.092 0-181.105 14.23-246.082 38.595-14.313 5.367-27.976 11.381-40.638 18.083v-138.598c0-1.049 0.419-6.951 11.965-17.187 11.498-10.191 30.473-21.242 57.436-31.355 53.623-20.107 130.449-33.378 217.319-33.378 18.67 0 36.979 0.623 54.731 1.794 22.573 1.487 42.078-15.606 43.565-38.175 1.491-22.573-15.602-42.078-38.175-43.569-19.522-1.286-39.633-1.97-60.121-1.97-94.092 0-181.105 14.23-246.082 38.593-14.313 5.37-27.976 11.383-40.638 18.084v-138.596c0-0.999 0.323-6.001 9.515-14.905 9.302-9.015 24.963-19.145 47.873-28.836 45.608-19.292 111.959-33.493 189.191-37.204 22.598-1.085 40.034-20.283 38.945-42.881-1.085-22.594-20.283-40.030-42.877-38.945-83.822 4.030-160.258 19.505-217.173 43.581-28.352 11.993-53.887 26.964-72.964 45.449-19.189 18.592-34.43 43.483-34.43 73.74v491.518c0 32.888 17.92 59.315 39.54 78.482 21.667 19.209 50.681 34.636 83.018 46.762zM204.8 704.24c0-1.047 0.419-6.948 11.965-17.184 11.498-10.194 30.473-21.245 57.436-31.355 53.623-20.108 130.449-33.381 217.319-33.381 86.868 0 163.697 13.273 217.317 33.381 26.964 10.111 45.941 21.162 57.438 31.355 11.547 10.236 11.964 16.137 11.964 17.184s-0.418 6.948-11.964 17.184c-11.497 10.194-30.474 21.245-57.438 31.355-53.621 20.108-130.449 33.381-217.317 33.381-86.87 0-163.696-13.273-217.319-33.381-26.963-10.111-45.938-21.162-57.436-31.355-11.545-10.236-11.965-16.137-11.965-17.184zM815.309 294.851c-5.919 0-11.776-1.167-17.244-3.432s-10.433-5.583-14.619-9.765l-0.127-0.131-127.959-126.833v-64.848h64.848l126.964 128.086c4.182 4.182 7.504 9.15 9.769 14.619 2.265 5.464 3.428 11.325 3.428 17.244 0 5.915-1.163 11.776-3.428 17.244-2.265 5.464-5.587 10.433-9.769 14.619-4.186 4.182-9.15 7.5-14.619 9.765s-11.325 3.432-17.244 3.432zM766.714 367.104c15.409 6.382 31.92 9.667 48.595 9.667s33.186-3.285 48.595-9.667c15.405-6.382 29.401-15.737 41.193-27.525 11.792-11.792 21.144-25.793 27.525-41.198s9.667-31.916 9.667-48.591c0-16.679-3.285-33.19-9.667-48.595-6.369-15.38-15.7-29.356-27.464-41.132-0.020-0.020-0.041-0.041-0.061-0.061l-138.727-139.956c-7.692-7.762-18.166-12.124-29.090-12.124h-122.88c-22.622 0-40.96 18.338-40.96 40.96v122.88c0 10.924 4.366 21.398 12.124 29.090l139.956 138.727c0.025 0.025 0.049 0.045 0.074 0.070 11.776 11.76 25.747 21.086 41.12 27.455z" />
<glyph unicode="&#xe92c;" glyph-name="database_x" horiz-adv-x="983" d="M245.438 801.844c64.976 24.365 151.99 38.596 246.082 38.596s181.105-14.231 246.084-38.596c32.334-12.126 61.35-27.553 83.018-46.762 21.619-19.167 39.539-45.594 39.539-78.482v-307.198c0-22.622-18.338-40.96-40.96-40.96s-40.96 18.338-40.96 40.96v200.038c-12.661-6.702-26.325-12.716-40.636-18.084-64.979-24.365-151.99-38.594-246.084-38.594-94.092 0-181.105 14.23-246.082 38.594-14.313 5.367-27.976 11.382-40.638 18.084v-138.598c0-1.049 0.419-6.951 11.965-17.187 11.498-10.191 30.473-21.242 57.436-31.355 53.623-20.107 130.449-33.378 217.319-33.378 20.984 0 41.468 0.778 61.252 2.261 22.561 1.688 42.213-15.233 43.901-37.794 1.688-22.557-15.233-42.213-37.79-43.901-21.832-1.63-44.356-2.486-67.363-2.486-94.092 0-181.105 14.23-246.082 38.593-14.313 5.37-27.976 11.383-40.638 18.084v-138.596c0-1.049 0.419-6.951 11.965-17.187 11.498-10.191 30.473-21.242 57.436-31.355 53.623-20.107 130.449-33.378 217.319-33.378 15.020 0 29.766 0.389 44.155 1.167 22.589 1.221 41.89-16.101 43.11-38.691 1.225-22.585-16.097-41.89-38.687-43.11-15.921-0.86-32.141-1.286-48.579-1.286-94.092 0-181.105 14.23-246.082 38.593-32.337 12.128-61.352 27.554-83.018 46.764-21.62 19.165-39.54 45.593-39.54 78.483v491.518c0 32.888 17.92 59.315 39.54 78.482 21.667 19.209 50.681 34.636 83.018 46.762zM204.8 676.6c0-1.047 0.419-6.948 11.965-17.184 11.498-10.194 30.473-21.245 57.436-31.355 53.623-20.108 130.449-33.381 217.319-33.381 86.868 0 163.697 13.273 217.317 33.381 26.964 10.11 45.941 21.161 57.438 31.355 11.547 10.236 11.964 16.137 11.964 17.184s-0.418 6.948-11.964 17.184c-11.497 10.194-30.474 21.245-57.438 31.355-53.621 20.108-130.449 33.381-217.317 33.381-86.87 0-163.696-13.273-217.319-33.381-26.963-10.11-45.938-21.161-57.436-31.355-11.545-10.236-11.965-16.137-11.965-17.184zM667.357 255.005c15.995 15.995 41.931 15.995 57.926 0l73.437-73.437 73.437 73.437c15.995 15.995 41.931 15.995 57.926 0 15.995-15.999 15.995-41.931 0-57.93l-73.437-73.433 73.437-73.437c15.995-15.999 15.995-41.931 0-57.93-15.995-15.995-41.931-15.995-57.926 0l-73.437 73.437-73.437-73.437c-15.995-15.995-41.931-15.995-57.926 0-15.995 15.999-15.995 41.931 0 57.93l73.437 73.437-73.437 73.433c-15.995 15.999-15.995 41.931 0 57.93z" />
<glyph unicode="&#xe92d;" glyph-name="detail" horiz-adv-x="983" d="M105.914 802.506c15.363 15.363 36.2 23.994 57.926 23.994h163.84c21.726 0 42.563-8.631 57.926-23.994s23.994-36.2 23.994-57.926v-163.84c0-21.726-8.631-42.562-23.994-57.926s-36.2-23.994-57.926-23.994h-163.84c-21.726 0-42.563 8.63-57.926 23.994s-23.994 36.2-23.994 57.926v163.84c0 21.727 8.631 42.563 23.994 57.926zM327.68 744.58h-163.84v-163.84h163.84v163.84zM491.52 744.58c0 22.622 18.338 40.96 40.96 40.96h327.68c22.622 0 40.96-18.338 40.96-40.96s-18.338-40.96-40.96-40.96h-327.68c-22.622 0-40.96 18.339-40.96 40.96zM491.52 580.74c0 22.622 18.338 40.96 40.96 40.96h204.8c22.622 0 40.96-18.338 40.96-40.96s-18.338-40.961-40.96-40.961h-204.8c-22.622 0-40.96 18.339-40.96 40.961zM105.914 392.905c15.363 15.364 36.2 23.994 57.926 23.994h163.84c21.726 0 42.563-8.63 57.926-23.994 15.363-15.36 23.994-36.196 23.994-57.926v-163.84c0-21.725-8.631-42.562-23.994-57.926s-36.2-23.994-57.926-23.994h-163.84c-21.726 0-42.563 8.63-57.926 23.994s-23.994 36.2-23.994 57.926v163.84c0 21.729 8.631 42.566 23.994 57.926zM327.68 334.979h-163.84v-163.84h163.84v163.84zM491.52 334.979c0 22.622 18.338 40.96 40.96 40.96h327.68c22.622 0 40.96-18.338 40.96-40.96s-18.338-40.96-40.96-40.96h-327.68c-22.622 0-40.96 18.338-40.96 40.96zM491.52 171.139c0 22.622 18.338 40.96 40.96 40.96h204.8c22.622 0 40.96-18.338 40.96-40.96s-18.338-40.96-40.96-40.96h-204.8c-22.622 0-40.96 18.338-40.96 40.96z" />
<glyph unicode="&#xe92e;" glyph-name="device_analytics" d="M371.2 418.133l98.133 98.133 55.467-55.467c17.067-17.067 42.667-17.067 59.733 0l128 128c17.067 17.067 17.067 42.667 0 59.733s-42.667 17.067-59.733 0l-98.133-98.133-55.467 55.467c-17.067 17.067-42.667 17.067-59.733 0l-128-128c-17.067-17.067-17.067-42.667 0-59.733s42.667-17.067 59.733 0zM853.333 832h-682.667c-21.333 0-42.667-8.533-59.733-25.6s-25.6-38.4-25.6-59.733v-426.667c0-21.333 8.533-42.667 25.6-59.733s38.4-25.6 59.733-25.6h170.667v-85.333h-42.667c-25.6 0-42.667-17.067-42.667-42.667s17.067-42.667 42.667-42.667h426.667c25.6 0 42.667 17.067 42.667 42.667s-17.067 42.667-42.667 42.667h-42.667v85.333h170.667c21.333 0 42.667 8.533 59.733 25.6s25.6 38.4 25.6 59.733v426.667c0 21.333-8.533 42.667-25.6 59.733s-38.4 25.6-59.733 25.6zM597.333 149.333h-170.667v85.333h170.667v-85.333zM853.333 320h-682.667v426.667h682.667v-426.667z" />
<glyph unicode="&#xe92f;" glyph-name="dg" d="M896 405.333c25.6 0 42.667 17.067 42.667 42.667v298.667c0 34.133-12.8 68.267-38.4 89.6-21.333 25.6-55.467 38.4-89.6 38.4h-597.333c-34.133 0-68.267-12.8-89.6-38.4s-38.4-55.467-38.4-89.6v-597.333c0-34.133 12.8-68.267 38.4-89.6 21.333-25.6 55.467-38.4 89.6-38.4h298.667c25.6 0 42.667 17.067 42.667 42.667s-17.067 42.667-42.667 42.667h-42.667v384h384v-42.667c0-25.6 17.067-42.667 42.667-42.667zM384 106.667h-170.667c-12.8 0-21.333 4.267-29.867 12.8s-12.8 17.067-12.8 29.867v341.333h213.333v-384zM384 576h-213.333v170.667c0 12.8 4.267 21.333 12.8 29.867s17.067 12.8 29.867 12.8h170.667v-213.333zM469.333 576v213.333h341.333c12.8 0 21.333-4.267 29.867-12.8s12.8-17.067 12.8-29.867v-170.667h-384zM960 110.933l-21.333 17.067c0 8.533 4.267 17.067 4.267 21.333 0 8.533 0 17.067-4.267 21.333l25.6 12.8c21.333 12.8 25.6 38.4 17.067 59.733-12.8 21.333-38.4 25.6-59.733 17.067l-25.6-12.8c-12.8 8.533-25.6 17.067-38.4 21.333v29.867c0 25.6-17.067 42.667-42.667 42.667s-42.667-17.067-42.667-42.667v-29.867c-12.8-4.267-29.867-12.8-38.4-21.333l-25.6 12.8c-21.333 12.8-46.933 4.267-59.733-17.067s-4.267-46.933 17.067-59.733l25.6-12.8c0-8.533-4.267-17.067-4.267-21.333s0-17.067 4.267-21.333l-25.6-12.8c-21.333-12.8-25.6-38.4-17.067-59.733s38.4-25.6 59.733-17.067l25.6 12.8c12.8-8.533 25.6-17.067 38.4-21.333v-29.867c0-25.6 17.067-42.667 42.667-42.667s42.667 17.067 42.667 42.667v29.867c12.8 4.267 29.867 12.8 38.4 21.333l25.6-12.8c21.333-12.8 46.933-4.267 59.733 17.067 8.533 17.067 0 42.667-21.333 55.467zM849.067 128c0-4.267-4.267-8.533-8.533-8.533-8.533-8.533-17.067-12.8-29.867-12.8s-21.333 4.267-29.867 12.8c-4.267 4.267-4.267 4.267-4.267 8.533-8.533 8.533-8.533 12.8-8.533 21.333s0 12.8 4.267 21.333c0 4.267 4.267 4.267 4.267 8.533 8.533 8.533 17.067 12.8 29.867 12.8s21.333-4.267 29.867-12.8c4.267-4.267 4.267-4.267 8.533-8.533 8.533-8.533 8.533-12.8 8.533-21.333s0-12.8-4.267-21.333z" />
<glyph unicode="&#xe930;" glyph-name="dots" horiz-adv-x="983" d="M146.874 492.208c15.363 15.36 36.2 23.99 57.926 23.99s42.563-8.63 57.926-23.99c15.363-15.364 23.994-36.2 23.994-57.93 0-21.725-8.631-42.562-23.994-57.926-15.363-15.36-36.2-23.994-57.926-23.994s-42.563 8.634-57.926 23.994c-15.363 15.364-23.994 36.2-23.994 57.926 0 21.729 8.631 42.566 23.994 57.93zM433.594 492.208c15.364 15.36 36.2 23.99 57.926 23.99s42.562-8.63 57.926-23.99c15.364-15.364 23.994-36.2 23.994-57.93 0-21.725-8.63-42.562-23.994-57.926-15.364-15.36-36.2-23.994-57.926-23.994s-42.562 8.634-57.926 23.994c-15.364 15.364-23.994 36.2-23.994 57.926 0 21.729 8.63 42.566 23.994 57.93zM720.314 492.208c15.364 15.36 36.2 23.99 57.926 23.99s42.562-8.63 57.926-23.99c15.364-15.364 23.994-36.2 23.994-57.93 0-21.725-8.63-42.562-23.994-57.926-15.364-15.36-36.2-23.994-57.926-23.994s-42.562 8.634-57.926 23.994c-15.364 15.364-23.994 36.2-23.994 57.926 0 21.729 8.63 42.566 23.994 57.93z" />
<glyph unicode="&#xe931;" glyph-name="edit" horiz-adv-x="983" d="M684.388 821.020c23.81 23.793 56.095 37.16 89.756 37.16 33.677 0 65.974-13.378 89.788-37.192s37.192-56.112 37.192-89.789c0-33.667-13.369-65.957-37.171-89.768-0.008-0.007 0.008 0.007 0 0l-51.769-51.956c-1.438-2.123-3.101-4.142-4.981-6.023-1.843-1.845-3.822-3.478-5.902-4.897l-280.764-281.772c-7.688-7.713-18.129-12.046-29.016-12.046h-122.88c-22.621 0-40.96 18.338-40.96 40.96v122.88c0 10.887 4.336 21.328 12.049 29.012l281.77 280.768c1.421 2.079 3.052 4.056 4.899 5.902 1.88 1.881 3.899 3.541 6.021 4.98l51.937 51.75c0.012 0.011 0.020 0.021 0.033 0.032zM655.819 676.909l-246.219-245.342v-64.909h64.909l245.342 246.218-64.033 64.033zM777.675 670.906l-63.824 63.826 28.43 28.33c8.45 8.45 19.911 13.198 31.863 13.198s23.413-4.747 31.863-13.198c8.45-8.45 13.197-19.912 13.197-31.863s-4.747-23.412-13.197-31.862l-28.332-28.432zM158.871 658.345c23.045 23.045 54.299 35.991 86.889 35.991h40.96c22.621 0 40.96-18.338 40.96-40.96s-18.339-40.96-40.96-40.96h-40.96c-10.863 0-21.282-4.315-28.963-11.997s-11.997-18.1-11.997-28.963v-368.638c0-10.867 4.316-21.283 11.997-28.967 7.682-7.68 18.1-11.993 28.963-11.993h368.64c10.863 0 21.283 4.313 28.963 11.993 7.68 7.684 11.997 18.1 11.997 28.967v40.96c0 22.618 18.338 40.96 40.96 40.96s40.96-18.342 40.96-40.96v-40.96c0-32.592-12.947-63.848-35.992-86.893s-54.297-35.987-86.888-35.987h-368.64c-32.59 0-63.845 12.943-86.889 35.987s-35.991 54.301-35.991 86.893v368.638c0 32.59 12.946 63.845 35.991 86.889z" />
<glyph unicode="&#xe932;" glyph-name="file_certificate" horiz-adv-x="983" d="M286.722 768.8h245.758v-122.88c0-21.726 8.634-42.563 23.994-57.926 15.364-15.363 36.2-23.994 57.926-23.994h122.88v-409.601c0-10.863-4.313-21.279-11.997-28.963-7.68-7.68-18.096-11.997-28.963-11.997h-204.8c-22.618 0-40.96-18.338-40.96-40.96s18.342-40.96 40.96-40.96h204.8c32.592 0 63.848 12.947 86.893 35.992s35.987 54.301 35.987 86.888v450.561c0 10.863-4.313 21.282-11.997 28.963l-204.8 204.8c-7.68 7.681-18.096 11.997-28.963 11.997h-286.718c-32.59 0-63.845-12.946-86.889-35.991s-35.991-54.299-35.991-86.889v-122.88c0-22.621 18.339-40.96 40.96-40.96s40.96 18.339 40.96 40.96v122.88c0 10.863 4.316 21.282 11.997 28.963s18.1 11.997 28.963 11.997zM614.4 710.874l64.954-64.954h-64.954v64.954zM129.91 475.054c30.726 30.724 72.399 47.985 115.852 47.985s85.126-17.261 115.852-47.985c30.726-30.728 47.986-72.401 47.986-115.855 0-43.45-17.26-85.127-47.986-115.851-3.464-3.465-7.066-6.754-10.795-9.871l57.056-190.185c4.695-15.655-0.362-32.6-12.867-43.119s-30.067-12.595-44.683-5.288l-104.562 52.281-104.562-52.281c-14.616-7.307-32.177-5.231-44.683 5.288s-17.563 27.464-12.867 43.119l57.056 190.185c-3.729 3.117-7.332 6.406-10.795 9.871-30.726 30.724-47.988 72.401-47.988 115.851 0 43.454 17.262 85.127 47.988 115.855zM215.635 198.152l-26.281-87.601 38.090 19.046c11.531 5.763 25.104 5.763 36.636 0l38.089-19.046-26.28 87.601c-9.866-1.843-19.948-2.793-30.127-2.793s-20.26 0.95-30.126 2.793zM245.762 441.119c-21.726 0-42.563-8.63-57.926-23.994-15.363-15.36-23.994-36.196-23.994-57.926 0-21.725 8.631-42.562 23.994-57.926s36.2-23.994 57.926-23.994c21.727 0 42.563 8.63 57.926 23.994s23.994 36.2 23.994 57.926c0 21.729-8.631 42.566-23.994 57.926-15.363 15.364-36.2 23.994-57.926 23.994z" />
<glyph unicode="&#xe933;" glyph-name="file_description" d="M627.2 861.867c-8.533 8.533-17.067 12.8-29.867 12.8h-298.667c-34.133 0-68.267-12.8-89.6-38.4s-38.4-55.467-38.4-89.6v-597.333c0-34.133 12.8-68.267 38.4-89.6 21.333-25.6 55.467-38.4 89.6-38.4h426.667c34.133 0 68.267 12.8 89.6 38.4 25.6 25.6 38.4 55.467 38.4 89.6v469.333c0 12.8-4.267 21.333-12.8 29.867l-213.333 213.333zM640 729.6l68.267-68.267h-68.267v68.267zM768 149.333c0-12.8-4.267-21.333-12.8-29.867s-17.067-12.8-29.867-12.8h-426.667c-12.8 0-21.333 4.267-29.867 12.8s-12.8 17.067-12.8 29.867v597.333c0 12.8 4.267 21.333 12.8 29.867s17.067 12.8 29.867 12.8h256v-128c0-21.333 8.533-42.667 25.6-59.733s38.4-25.6 59.733-25.6h128v-426.667zM640 277.333h-256c-25.6 0-42.667-17.067-42.667-42.667s17.067-42.667 42.667-42.667h256c25.6 0 42.667 17.067 42.667 42.667s-17.067 42.667-42.667 42.667zM384 448c-25.6 0-42.667-17.067-42.667-42.667s17.067-42.667 42.667-42.667h256c25.6 0 42.667 17.067 42.667 42.667s-17.067 42.667-42.667 42.667h-256z" />
<glyph unicode="&#xe934;" glyph-name="file_search" horiz-adv-x="983" d="M286.72 768.8h245.76v-122.88c0-21.726 8.63-42.563 23.994-57.926s36.2-23.994 57.926-23.994h122.88v-143.361c0-22.622 18.338-40.96 40.96-40.96s40.96 18.338 40.96 40.96v184.321c0 10.863-4.317 21.282-11.997 28.963l-204.8 204.8c-7.68 7.681-18.1 11.997-28.963 11.997h-286.72c-32.59 0-63.845-12.946-86.889-35.991s-35.991-54.299-35.991-86.889v-573.441c0-32.588 12.946-63.844 35.991-86.888s54.299-35.992 86.889-35.992h204.8c22.622 0 40.96 18.338 40.96 40.96s-18.338 40.96-40.96 40.96h-204.8c-10.863 0-21.282 4.317-28.963 11.997-7.681 7.684-11.997 18.1-11.997 28.963v573.441c0 10.863 4.316 21.282 11.997 28.963s18.1 11.997 28.963 11.997zM614.4 710.874l64.954-64.954h-64.954v64.954zM574.468 317.211c26.886 26.886 63.349 41.988 101.372 41.988s74.486-15.102 101.372-41.988c26.886-26.886 41.988-63.349 41.988-101.372 0-24.023-6.029-47.423-17.252-68.182l87.175-87.175c15.995-15.995 15.995-41.931 0-57.926s-41.931-15.995-57.926 0l-87.175 87.175c-20.759-11.223-44.159-17.252-68.182-17.252-38.023 0-74.486 15.106-101.372 41.992-26.886 26.882-41.988 63.349-41.988 101.368 0 38.023 15.102 74.486 41.988 101.372zM675.84 277.279c-16.294 0-31.924-6.472-43.446-17.994s-17.994-27.148-17.994-43.446c0-16.294 6.472-31.92 17.994-43.442s27.152-17.998 43.446-17.998c16.294 0 31.924 6.476 43.446 17.998s17.994 27.148 17.994 43.442c0 16.298-6.472 31.924-17.994 43.446s-27.152 17.994-43.446 17.994z" />
<glyph unicode="&#xe935;" glyph-name="format_bold" d="M649.603 456.96c41.387 28.587 70.394 75.52 70.394 119.040 0 96.427-74.661 170.667-170.664 170.667h-266.667v-597.333h300.37c89.173 0 158.293 72.533 158.293 161.707 0 64.853-36.688 120.32-91.728 145.92zM410.667 640h128c35.41 0 64.003-28.587 64.003-64s-28.592-64-64.003-64h-128v128zM560 256h-149.333v128h149.333c35.41 0 64.003-28.587 64.003-64s-28.592-64-64.003-64z" />
<glyph unicode="&#xe936;" glyph-name="format_italic" d="M426.667 746.667v-128h94.293l-145.92-341.333h-119.040v-128h341.333v128h-94.293l145.92 341.333h119.040v128h-341.333z" />
<glyph unicode="&#xe937;" glyph-name="FwEtc" d="M512-64c-282.77 0-512 229.23-512 512s229.23 512 512 512c282.77 0 512-229.23 512-512v0c-0.324-282.64-229.361-511.677-511.969-512h-0.031zM682.667 504.889c-31.419 0-56.889-25.47-56.889-56.889s25.47-56.889 56.889-56.889c31.419 0 56.889 25.47 56.889 56.889v0c0 31.419-25.47 56.889-56.889 56.889v0zM512 504.889c-31.419 0-56.889-25.47-56.889-56.889s25.47-56.889 56.889-56.889c31.419 0 56.889 25.47 56.889 56.889v0c0 31.419-25.47 56.889-56.889 56.889v0zM341.333 504.889c-31.419 0-56.889-25.47-56.889-56.889s25.47-56.889 56.889-56.889c31.419 0 56.889 25.47 56.889 56.889v0c0 31.419-25.47 56.889-56.889 56.889v0z" />
<glyph unicode="&#xe938;" glyph-name="FwItems" horiz-adv-x="973" d="M460.763 960l-281.557-460.763h563.175zM972.825 166.382c0-127.236-103.145-230.382-230.382-230.382s-230.382 103.145-230.382 230.382c0 127.236 103.145 230.382 230.382 230.382s230.382-103.145 230.382-230.382zM0.061 371.206h409.588v-409.588h-409.588z" />
<glyph unicode="&#xe939;" glyph-name="FwMachines" horiz-adv-x="997" d="M937.45 644.116l-199.37-93-129.004 121.264v77.461l129.004 121.264 199.37-93c5.755-3.197 12.622-5.080 19.929-5.080 22.993 0 41.633 18.64 41.633 41.633 0 17.502-10.8 32.482-26.099 38.639l-0.28 0.099-216.962 101.327c-6.868 3.314-14.934 5.25-23.452 5.25-15.299 0-29.14-6.246-39.11-16.328l-0.005-0.005-96.167-88.602c-9.847 13.38-25.478 22.008-43.133 22.165h-0.025c-30.531-0.1-55.255-24.823-55.354-55.345v-55.13h-175.915c-22.267 64.796-82.686 110.529-153.787 110.529-12.667 0-24.995-1.452-36.827-4.197l1.095 0.214c-66.118-15.695-116.874-67.746-130.452-133.396l-0.194-1.121c-1.317-7.853-2.069-16.902-2.069-26.126 0-61.582 33.544-115.329 83.357-143.967l0.806-0.427 141.729-466.174h-170.696v-166.122h719.726v166.122h-200.426l-275.131 511.032c9 12.275 16.656 26.356 22.296 41.422l0.397 1.208h175.915v-55.355c0.1-30.531 24.823-55.255 55.345-55.354h0.010c17.679 0.157 33.311 8.785 43.053 22.016l0.105 0.149 96.343-88.602c9.975-10.087 23.815-16.333 39.115-16.333 8.519 0 16.585 1.937 23.782 5.393l-0.33-0.143 216.962 101.327c14.323 6.615 24.083 20.857 24.083 37.377 0 6.542-1.531 12.727-4.253 18.216l0.107-0.239c-6.86 14.174-21.131 23.776-37.646 23.776-6.34 0-12.349-1.415-17.729-3.946l0.255 0.108zM166.239 655.843c-30.571 0-55.355 24.783-55.355 55.355s24.783 55.355 55.355 55.355c30.571 0 55.355-24.783 55.355-55.355v0c-0.033-30.602-24.816-55.405-55.407-55.472h-0.006z" />
<glyph unicode="&#xe93a;" glyph-name="FwMasters" horiz-adv-x="1210" d="M1210.149 504.913v455.087h-423.552v-170.845h-363.045v170.845h-423.552v-455.087h423.552v170.346h121.015v-568.841h242.030v-170.845h423.552v455.586h-423.552v-170.845h-121.015v454.945h121.015v-170.845z" />
<glyph unicode="&#xe93b;" glyph-name="FwMenus" d="M0 96.648h739.569v113.784h-739.569zM0 381.079h568.862v113.784h-568.862zM0 779.294v-113.784h739.569v113.784zM1024 233.743l-203.656 204.258 203.656 204.198-80.233 80.233-284.431-284.431 284.431-284.431z" />
<glyph unicode="&#xe93c;" glyph-name="FwOperations" horiz-adv-x="1138" d="M967.111 277.333h-796.444c-94.257 0-170.667-76.41-170.667-170.667s76.41-170.667 170.667-170.667v0h796.444c94.257 0 170.667 76.41 170.667 170.667s-76.41 170.667-170.667 170.667v0zM967.111 49.778h-796.444c-31.419 0-56.889 25.47-56.889 56.889s25.47 56.889 56.889 56.889v0h796.444c31.419 0 56.889-25.47 56.889-56.889s-25.47-56.889-56.889-56.889v0zM398.222 903.111v-455.111c0-31.419 25.47-56.889 56.889-56.889v0h455.111c31.419 0 56.889 25.47 56.889 56.889v0 455.111c0 31.419-25.47 56.889-56.889 56.889v0h-455.111c-31.419 0-56.889-25.47-56.889-56.889v0zM796.444 675.556h-227.556v112.64h227.556zM0 617.529h281.031v-108.658h-281.031zM114.347 788.196h166.684v-111.502h-166.684v111.502z" />
<glyph unicode="&#xe93d;" glyph-name="FwQualitys" horiz-adv-x="1081" d="M398.237 560.614h284.474v-624.614h-284.474zM796.474-64h170.644c62.752 0.191 113.571 51.011 113.763 113.745v512.018h-284.474zM967.119 960h-853.356c-62.752-0.191-113.571-51.011-113.763-113.745v-170.73h1080.881v170.712c-0.191 62.752-51.011 113.571-113.745 113.763h-0.018zM0 49.763c0.191-62.752 51.011-113.571 113.745-113.763h170.73v625.763h-284.474z" />
<glyph unicode="&#xe93e;" glyph-name="FwRaws" horiz-adv-x="922" d="M921.6 243.2v-153.6c0-84.8-206.336-153.6-460.8-153.6s-460.8 68.8-460.8 153.6v153.6c0-84.8 206.336-153.6 460.8-153.6s460.8 68.736 460.8 153.6zM460.8 294.4c-254.464 0-460.8 68.8-460.8 153.6v-153.6c0-84.8 206.336-153.6 460.8-153.6s460.8 68.8 460.8 153.6v153.6c0-84.864-206.336-153.6-460.8-153.6zM460.8 960c-254.464 0-460.8-68.8-460.8-153.6v-102.4c0-84.8 206.336-153.6 460.8-153.6s460.8 68.8 460.8 153.6v102.4c0 84.8-206.336 153.6-460.8 153.6zM460.8 499.2c-254.464 0-460.8 68.8-460.8 153.6v-153.6c0-84.8 206.336-153.6 460.8-153.6s460.8 68.8 460.8 153.6v153.6c0-84.8-206.336-153.6-460.8-153.6z" />
<glyph unicode="&#xe93f;" glyph-name="FwSecuritys" horiz-adv-x="838" d="M418.894 960l-418.894-186.156v-279.263c-0.002-0.568-0.003-1.242-0.003-1.915 0-262.785 174.99-484.698 414.799-555.571l4.098-1.039c243.907 71.912 418.897 293.825 418.897 556.61 0 0.674-0.001 1.347-0.003 2.020v-0.105 279.263zM325.788 215.318l-186.156 186.156 65.627 65.627 120.53-120.083 306.742 306.742 65.627-66.129z" />
<glyph unicode="&#xe940;" glyph-name="FwUsers" d="M512 960c-282.77 0-512-229.23-512-512s229.23-512 512-512c282.77 0 512 229.23 512 512v0c0 282.77-229.23 512-512 512v0zM696.862 635.392c54.558 0 98.786-44.228 98.786-98.786s-44.228-98.786-98.786-98.786c-54.537 0-98.752 44.194-98.786 98.722v0.003c0 0.089 0 0.195 0 0.301 0 54.425 44.12 98.545 98.545 98.545 0.085 0 0.17 0 0.254 0h-0.013zM389.662 716.288c66.708-0.034 120.772-54.12 120.772-120.832 0-66.734-54.098-120.832-120.832-120.832s-120.832 54.098-120.832 120.832v0c0.137 66.679 54.153 120.695 120.819 120.832h0.013zM389.662 248.802v-191.97c-123.249 39.675-219.268 132.67-262.263 251.099l-0.905 2.853c53.79 57.344 187.874 86.498 263.168 86.498 34.876-0.758 68.362-4.822 100.723-11.895l-3.443 0.631c-55.586-22.558-94.619-74.979-97.329-136.831l-0.011-0.325zM512 38.4c-0.739-0.006-1.612-0.009-2.485-0.009-13.363 0-26.552 0.747-39.526 2.202l1.594-0.145v208.414c0 72.704 150.588 109.086 225.28 109.086 73.17-0.339 141.148-22.275 197.969-59.753l-1.361 0.843c-61.475-153.673-208.979-260.317-381.43-260.638h-0.040z" />
<glyph unicode="&#xe941;" glyph-name="id" d="M256 746.667c-22.632 0-44.337-8.99-60.34-24.994s-24.994-37.708-24.994-60.34v-426.667c0-22.63 8.99-44.335 24.994-60.339s37.708-24.994 60.34-24.994h512c22.63 0 44.335 8.99 60.339 24.994s24.994 37.709 24.994 60.339v426.667c0 22.632-8.99 44.337-24.994 60.34s-37.709 24.994-60.339 24.994h-512zM135.32 782.013c32.006 32.006 75.416 49.987 120.68 49.987h512c45.265 0 88.674-17.981 120.678-49.987 32.009-32.006 49.988-75.416 49.988-120.68v-426.667c0-45.265-17.98-88.674-49.988-120.678-32.004-32.009-75.413-49.988-120.678-49.988h-512c-45.264 0-88.673 17.98-120.68 49.988-32.006 32.004-49.987 75.413-49.987 120.678v426.667c0 45.264 17.981 88.673 49.987 120.68zM293.49 623.843c24.005 24.005 56.562 37.49 90.51 37.49s66.505-13.486 90.509-37.49c24.004-24.005 37.491-56.562 37.491-90.51 0-33.95-13.487-66.505-37.491-90.509s-56.561-37.491-90.509-37.491c-33.948 0-66.505 13.487-90.51 37.491s-37.49 56.563-37.49 90.509c0 33.948 13.486 66.505 37.49 90.51zM384 576c-11.316 0-22.168-4.495-30.17-12.497s-12.497-18.854-12.497-30.17c0-11.315 4.495-22.17 12.497-30.17s18.854-12.497 30.17-12.497c11.316 0 22.168 4.497 30.17 12.497s12.497 18.854 12.497 30.17c0 11.316-4.495 22.168-12.497 30.17s-18.854 12.497-30.17 12.497zM597.333 618.667c0 23.564 19.102 42.667 42.667 42.667h85.333c23.565 0 42.667-19.103 42.667-42.667s-19.102-42.667-42.667-42.667h-85.333c-23.565 0-42.667 19.103-42.667 42.667zM597.333 448c0 23.565 19.102 42.667 42.667 42.667h85.333c23.565 0 42.667-19.102 42.667-42.667s-19.102-42.667-42.667-42.667h-85.333c-23.565 0-42.667 19.102-42.667 42.667zM256 277.333c0 23.565 19.103 42.667 42.667 42.667h426.667c23.565 0 42.667-19.102 42.667-42.667s-19.102-42.667-42.667-42.667h-426.667c-23.564 0-42.667 19.102-42.667 42.667z" />
<glyph unicode="&#xe942;" glyph-name="image" horiz-adv-x="983" d="M245.76 794c-21.726 0-42.563-8.631-57.926-23.994s-23.994-36.2-23.994-57.926v-310.713l135.439 135.426c25.156 24.208 56.142 38.88 89.841 38.88 33.698 0 64.684-14.672 89.842-38.88l0.561-0.549 93.917-93.917 12.567 12.554c37.54 36.102 86.868 49.447 134.582 29.938 20.939-8.565 30.97-32.477 22.409-53.416s-32.477-30.974-53.416-22.409c-12.923 5.284-28.553 4.248-46.526-12.906l-12.952-12.947c8.229-15.487 5.825-35.14-7.221-48.181-15.995-15.999-41.931-15.999-57.926 0l-20.423 20.419c-0.016 0.020-0.037 0.041-0.057 0.061-0.020 0.016-0.041 0.037-0.057 0.057l-122.52 122.515c-12.749 12.173-24.103 15.741-32.78 15.741s-20.031-3.568-32.782-15.741l-192.498-192.496v-64.954c0-21.729 8.631-42.566 23.994-57.926 15.363-15.364 36.2-23.994 57.926-23.994h266.24c22.622 0 40.96-18.342 40.96-40.96 0-22.622-18.338-40.96-40.96-40.96h-266.24c-43.453 0-85.126 17.261-115.852 47.985-30.726 30.728-47.988 72.401-47.988 115.855v81.912c0 0.004 0 0.008 0 0.012v409.595c0 43.453 17.262 85.126 47.988 115.852s72.399 47.988 115.852 47.988h491.52c43.454 0 85.127-17.262 115.851-47.988 30.728-30.726 47.989-72.399 47.989-115.852v-266.239c0-22.622-18.338-40.96-40.96-40.96s-40.96 18.338-40.96 40.96v266.239c0 21.726-8.63 42.563-23.994 57.926s-36.2 23.994-57.926 23.994h-491.52zM573.44 630.16c0 22.621 18.338 40.96 40.96 40.96h0.41c22.622 0 40.96-18.339 40.96-40.96s-18.338-40.96-40.96-40.96h-0.41c-22.622 0-40.96 18.338-40.96 40.96zM749.277 331.444c15.995 15.995 41.931 15.995 57.926 0l122.88-122.88c15.995-15.999 15.995-41.931 0-57.926-15.995-15.999-41.931-15.999-57.926 0l-52.957 52.957v-146.874c0-22.622-18.338-40.96-40.96-40.96s-40.96 18.338-40.96 40.96v146.874l-52.957-52.957c-15.995-15.999-41.931-15.999-57.926 0-15.995 15.995-15.995 41.927 0 57.926l122.88 122.88z" />
<glyph unicode="&#xe943;" glyph-name="info_circle" horiz-adv-x="983" d="M201.889 744.331c76.815 76.815 180.999 119.969 289.631 119.969 108.634 0 212.816-43.154 289.632-119.969 76.812-76.815 119.968-180.998 119.968-289.63 0-53.789-10.596-107.053-31.179-156.75-20.586-49.693-50.754-94.847-88.789-132.882s-83.19-68.207-132.887-88.789c-49.693-20.586-102.957-31.179-156.746-31.179s-107.052 10.592-156.747 31.179c-49.695 20.582-94.849 50.754-132.884 88.789s-68.206 83.19-88.79 132.882c-20.584 49.697-31.179 102.961-31.179 156.75 0 108.632 43.154 212.815 119.969 289.63zM491.52 782.38c-86.906 0-170.253-34.523-231.705-95.975s-95.975-144.799-95.975-231.704c0-43.033 8.476-85.643 24.943-125.399s40.604-75.878 71.032-106.308c30.428-30.425 66.551-54.563 106.307-71.033 39.756-16.466 82.365-24.941 125.398-24.941s85.643 8.475 125.399 24.941c39.756 16.47 75.878 40.608 106.308 71.033 30.425 30.429 54.563 66.552 71.029 106.308 16.47 39.756 24.945 82.366 24.945 125.399 0 86.905-34.525 170.252-95.973 231.704-61.452 61.452-144.802 95.975-231.707 95.975zM450.56 577.58c0 22.622 18.338 40.96 40.96 40.96h0.41c22.622 0 40.96-18.338 40.96-40.96s-18.338-40.959-40.96-40.959h-0.41c-22.622 0-40.96 18.337-40.96 40.959zM409.6 454.701c0 22.622 18.338 40.96 40.96 40.96h40.96c22.622 0 40.96-18.338 40.96-40.96v-122.88c22.622 0 40.96-18.338 40.96-40.96s-18.338-40.96-40.96-40.96h-40.96c-22.622 0-40.96 18.338-40.96 40.96v122.88c-22.622 0-40.96 18.338-40.96 40.96z" />
<glyph unicode="&#xe944;" glyph-name="info_hexagon" horiz-adv-x="983" d="M467.014 816.793c7.946 4.283 16.83 6.527 25.858 6.527s17.916-2.244 25.858-6.527l268.448-158.285c2.028-1.765 4.252-3.349 6.656-4.717 15.782-8.972 25.481-25.768 25.367-43.929v-298.607c0-18.063-9.892-34.931-26.202-43.897-0.733-0.401-1.458-0.827-2.167-1.278l-275.251-174.121c-7.422-3.879-15.675-5.906-24.060-5.906s-16.638 2.028-24.060 5.906l-275.251 174.121c-0.738 0.467-1.49 0.909-2.255 1.327-7.889 4.313-14.475 10.662-19.069 18.391-4.588 7.717-7.021 16.527-7.045 25.502v298.349c0 18.042 9.874 34.879 26.201 43.854 0.361 0.199 0.719 0.403 1.074 0.612l275.898 162.678zM843.313 719.406c-2.13 1.978-4.493 3.752-7.078 5.275l-276.48 163.021c-0.34 0.2-0.68 0.395-1.028 0.586-20.169 11.12-42.824 16.953-65.855 16.953s-45.687-5.832-65.855-16.953c-0.348-0.19-0.688-0.386-1.028-0.586l-275.997-162.736c-41.901-23.306-68.071-67.311-68.071-115.318v-298.476c0.048-23.667 6.453-46.891 18.548-67.236 11.851-19.935 28.736-36.389 48.951-47.722l275.476-174.264c0.713-0.451 1.442-0.881 2.183-1.29 19.751-10.842 41.914-16.527 64.442-16.527s44.691 5.685 64.442 16.527c0.741 0.41 1.47 0.84 2.183 1.29l275.513 174.289c41.562 23.4 67.461 67.265 67.461 115.016v298.235c0.229 44.185-21.619 85.319-57.807 109.916zM450.56 577.576c0 22.622 18.338 40.96 40.96 40.96h0.41c22.622 0 40.96-18.338 40.96-40.96s-18.338-40.959-40.96-40.959h-0.41c-22.622 0-40.96 18.338-40.96 40.959zM409.6 454.697c0 22.622 18.338 40.96 40.96 40.96h40.96c22.622 0 40.96-18.338 40.96-40.96v-122.88c22.622 0 40.96-18.338 40.96-40.96s-18.338-40.96-40.96-40.96h-40.96c-22.622 0-40.96 18.338-40.96 40.96v122.88c-22.622 0-40.96 18.338-40.96 40.96z" />
<glyph unicode="&#xe945;" glyph-name="InMaster" d="M491.081 869.187c12.992 7.306 28.847 7.306 41.839 0l341.333-192c13.431-7.557 21.747-21.773 21.747-37.187v-192c0-23.565-19.102-42.667-42.667-42.667s-42.667 19.102-42.667 42.667v119.046l-256-143.998v-359.049c0-15.159-8.043-29.18-21.129-36.83-13.082-7.654-29.244-7.787-42.458-0.358l-341.332 192c-13.435 7.556-21.749 21.773-21.749 37.188v384c0 15.414 8.314 29.63 21.749 37.187l341.332 192zM512 496.951l254.306 143.049-254.306 143.046-254.305-143.046 254.305-143.049zM213.333 567.046v-286.095l256-144v286.097l-256 143.998zM780.497 289.83c-16.661 16.661-16.661 43.678 0 60.339s43.678 16.661 60.339 0l128-128c16.661-16.661 16.661-43.678 0-60.339l-128-128c-16.661-16.661-43.678-16.661-60.339 0s-16.661 43.678 0 60.339l55.164 55.164h-195.661c-23.565 0-42.667 19.102-42.667 42.667s19.102 42.667 42.667 42.667h195.661l-55.164 55.164z" />
<glyph unicode="&#xe946;" glyph-name="augmented_reality" horiz-adv-x="983" d="M675.84 574.976l-163.84 102.4c-12.288 8.192-28.672 8.192-45.056 0l-163.84-102.4c-12.288-8.192-20.48-20.48-20.48-32.768v-184.32c0-12.288 8.192-28.672 20.48-32.768l163.84-102.4c12.288-8.192 28.672-8.192 45.056 0l163.84 102.4c12.288 8.192 20.48 20.48 20.48 32.768v184.32c0 12.288-8.192 28.672-20.48 32.768zM450.56 325.12l-81.92 49.152v86.016l81.92-49.152v-86.016zM491.52 484.864l-86.016 53.248 86.016 53.248 86.016-53.248-86.016-53.248zM614.4 378.368l-81.92-49.152v86.016l81.92 49.152v-86.016zM122.88 210.432c0-32.768 12.288-65.536 36.864-86.016 24.576-24.576 53.248-36.864 86.016-36.864h81.92c24.576 0 40.96 16.384 40.96 40.96s-16.384 40.96-40.96 40.96h-81.92c-12.288 0-20.48 4.096-28.672 12.288s-12.288 16.384-12.288 28.672v81.92c0 24.576-16.384 40.96-40.96 40.96s-40.96-16.384-40.96-40.96v-81.92zM737.28 824.832h-81.92c-24.576 0-40.96-16.384-40.96-40.96s16.384-40.96 40.96-40.96h81.92c12.288 0 20.48-4.096 28.672-12.288s12.288-16.384 12.288-28.672v-81.92c0-24.576 16.384-40.96 40.96-40.96s40.96 16.384 40.96 40.96v81.92c0 32.768-12.288 65.536-36.864 86.016-24.576 24.576-53.248 36.864-86.016 36.864zM327.68 824.832h-81.92c-32.768 0-65.536-12.288-86.016-36.864-24.576-24.576-36.864-53.248-36.864-86.016v-81.92c0-24.576 16.384-40.96 40.96-40.96s40.96 16.384 40.96 40.96v81.92c0 12.288 4.096 20.48 12.288 28.672s16.384 12.288 28.672 12.288h81.92c24.576 0 40.96 16.384 40.96 40.96s-16.384 40.96-40.96 40.96zM614.4 128.512c0-24.576 16.384-40.96 40.96-40.96h81.92c32.768 0 65.536 12.288 86.016 36.864 24.576 24.576 36.864 53.248 36.864 86.016v81.92c0 24.576-16.384 40.96-40.96 40.96s-40.96-16.384-40.96-40.96v-81.92c0-12.288-4.096-20.48-12.288-28.672s-16.384-12.288-28.672-12.288h-81.92c-24.576 0-40.96-16.384-40.96-40.96z" />
<glyph unicode="&#xe947;" glyph-name="InShooting" d="M486.473 825.183c8.277 4.461 17.532 6.799 26.935 6.799s18.662-2.338 26.935-6.799l279.633-164.88c2.108-1.837 4.425-3.487 6.929-4.911 8.077-4.592 14.78-11.252 19.422-19.294 4.646-8.043 7.066-17.178 7.006-26.466v-311.050c0-18.816-10.304-36.386-27.294-45.726-0.764-0.418-1.519-0.866-2.257-1.331l-286.72-181.38c-7.731-4.036-16.329-6.148-25.062-6.148s-17.331 2.112-25.062 6.148l-286.72 181.38c-0.768 0.486-1.552 0.947-2.349 1.382-8.218 4.493-15.078 11.106-19.863 19.157-4.779 8.038-7.313 17.212-7.339 26.564v310.779c0 18.793 10.286 36.333 27.293 45.681 0.376 0.207 0.749 0.419 1.119 0.637l287.394 169.457zM878.464 723.729c-2.223 2.064-4.689 3.915-7.386 5.504l-288 169.813c-0.354 0.209-0.708 0.412-1.071 0.611-21.009 11.584-44.608 17.658-68.599 17.658s-47.59-6.075-68.599-17.658c-0.363-0.198-0.717-0.402-1.071-0.611l-287.497-169.516c-43.647-24.278-70.908-70.116-70.908-120.123v-310.911c0.049-24.657 6.722-48.845 19.32-70.037 12.344-20.766 29.934-37.905 50.991-49.711l286.954-181.525c0.742-0.474 1.502-0.922 2.274-1.344 20.574-11.294 43.661-17.216 67.127-17.216s46.554 5.922 67.127 17.216c0.772 0.422 1.532 0.87 2.274 1.344l286.993 181.547c43.294 24.38 70.272 70.067 70.272 119.812v310.659c0.128 24.402-6.238 48.4-18.441 69.533-10.385 17.979-24.674 33.332-41.762 44.957zM391.32 568.68c32.006 32.006 75.415 49.987 120.68 49.987s88.674-17.981 120.678-49.987c32.009-32.006 49.988-75.415 49.988-120.68s-17.98-88.674-49.988-120.678c-32.004-32.009-75.413-49.988-120.678-49.988s-88.673 17.98-120.68 49.988c-32.006 32.004-49.987 75.413-49.987 120.678s17.981 88.673 49.987 120.68zM512 533.333c-22.63 0-44.335-8.99-60.339-24.994s-24.994-37.709-24.994-60.339c0-22.63 8.99-44.335 24.994-60.339s37.709-24.994 60.339-24.994c22.63 0 44.335 8.99 60.339 24.994s24.994 37.709 24.994 60.339c0 22.63-8.99 44.335-24.994 60.339s-37.709 24.994-60.339 24.994z" />
<glyph unicode="&#xe948;" glyph-name="language" horiz-adv-x="983" d="M286.72 826.68c22.621 0 40.96-18.339 40.96-40.96h122.88c22.622 0 40.96-18.339 40.96-40.96s-18.338-40.96-40.96-40.96h-122.81c0.042-15.096 0.108-29.32 0.214-42.727 35.222-3.025 73.945-10.335 108.006-24.925 48.755-20.886 96.51-61.394 96.51-131.291 0-37.229-8.192-71.61-26.89-100.983-18.788-29.516-46.281-50.995-79.839-65.393-20.787-8.921-44.871 0.7-53.792 21.488s0.7 44.872 21.489 53.793c21.043 9.028 34.51 20.705 43.034 34.099 8.61 13.529 14.078 31.805 14.078 56.996 0 11.559-3.232 21.75-10.363 30.806-10.33-32.985-27.521-63.037-47.551-87.491-31.438-38.38-77.735-72.053-126.406-72.053-41.368 0-76.566 15.729-101.569 38.126-24.019 21.512-41.791 52.335-41.791 84.754 0 47.276 11.846 90.253 42.717 121.124 21.728 21.729 49.456 34.032 80.456 39.414-0.113 13.953-0.183 28.695-0.226 44.263h-81.988c-22.621 0-40.96 18.338-40.96 40.96s18.339 40.96 40.96 40.96h81.92c0 22.621 18.339 40.96 40.96 40.96zM247.713 575.922c-11.176-3.46-18.854-8.389-24.19-13.725-10.089-10.089-18.723-28.55-18.723-63.198 0-3.011 2.707-13.148 14.529-23.736 10.258-9.187 25.143-16.413 43.728-17.158-8.937 26.948-12.644 61.198-14.687 102.686-0.24 4.877-0.458 9.919-0.656 15.131zM335.346 507.916c14.243 19.427 24.977 41.972 30.052 64.895-11.656 2.584-23.747 4.489-35.808 5.801 0.182-4.753 0.382-9.348 0.601-13.792 1.214-24.664 2.993-43.080 5.156-56.904zM655.36 539.959c16.187 0 30.855-9.531 37.429-24.322l163.84-368.64c9.187-20.673-0.123-44.88-20.795-54.067-20.668-9.187-44.876 0.123-54.063 20.795l-25.6 57.594h-201.622l-25.6-57.594c-9.187-20.673-33.395-29.983-54.063-20.795-20.673 9.187-29.983 33.395-20.795 54.067l163.84 368.64c6.574 14.791 21.242 24.322 37.429 24.322zM590.959 253.239h128.803l-64.401 144.908-64.401-144.908z" />
<glyph unicode="&#xe949;" glyph-name="list_check" horiz-adv-x="983" d="M278.237 794.203c15.996 15.996 41.93 15.996 57.926 0s15.996-41.93 0-57.926l-102.4-102.4c-15.996-15.996-41.93-15.996-57.926 0l-61.44 61.44c-15.996 15.996-15.996 41.93 0 57.926s41.93 15.996 57.926 0l32.477-32.477 73.437 73.437zM409.6 703.8c0 22.621 18.338 40.96 40.96 40.96h368.64c22.622 0 40.96-18.339 40.96-40.96s-18.338-40.96-40.96-40.96h-368.64c-22.622 0-40.96 18.338-40.96 40.96zM336.163 548.442c15.996-15.995 15.996-41.931 0-57.926l-102.4-102.4c-15.996-15.995-41.93-15.995-57.926 0l-61.44 61.44c-15.996 15.995-15.996 41.931 0 57.926s41.93 15.995 57.926 0l32.477-32.477 73.437 73.437c15.996 15.997 41.93 15.997 57.926 0zM409.6 458.039c0 22.622 18.338 40.96 40.96 40.96h368.64c22.622 0 40.96-18.338 40.96-40.96s-18.338-40.96-40.96-40.96h-368.64c-22.622 0-40.96 18.338-40.96 40.96zM336.163 302.682c15.996-15.995 15.996-41.931 0-57.926l-102.4-102.4c-15.996-15.995-41.93-15.995-57.926 0l-61.44 61.44c-15.996 15.995-15.996 41.931 0 57.926 15.996 15.999 41.93 15.999 57.926 0l32.477-32.477 73.437 73.437c15.996 15.999 41.93 15.999 57.926 0zM409.6 212.279c0 22.622 18.338 40.96 40.96 40.96h368.64c22.622 0 40.96-18.338 40.96-40.96s-18.338-40.96-40.96-40.96h-368.64c-22.622 0-40.96 18.338-40.96 40.96z" />
<glyph unicode="&#xe94a;" glyph-name="mail" horiz-adv-x="983" d="M204.8 706.8c-10.863 0-21.282-4.316-28.963-11.997-2.997-2.998-5.482-6.412-7.399-10.108l323.082-215.388 323.080 215.388c-1.913 3.695-4.399 7.11-7.397 10.108-7.68 7.681-18.1 11.997-28.963 11.997h-573.44zM819.2 589.305l-304.959-203.307c-13.758-9.171-31.683-9.171-45.441 0l-304.959 203.307v-333.064c0-10.867 4.316-21.283 11.997-28.963 7.682-7.684 18.1-11.997 28.963-11.997h573.44c10.863 0 21.283 4.313 28.963 11.997 7.68 7.68 11.997 18.096 11.997 28.963v333.064zM117.911 752.729c23.045 23.045 54.299 35.991 86.889 35.991h573.44c32.592 0 63.844-12.946 86.888-35.991s35.992-54.299 35.992-86.889v-409.598c0-32.592-12.947-63.848-35.992-86.893s-54.297-35.987-86.888-35.987h-573.44c-32.59 0-63.845 12.943-86.889 35.987s-35.991 54.301-35.991 86.893v409.598c0 32.59 12.946 63.845 35.991 86.889z" />
<glyph unicode="&#xe94b;" glyph-name="menu" horiz-adv-x="983" d="M122.88 700.46c0 22.622 18.339 40.96 40.96 40.96h655.36c22.622 0 40.96-18.338 40.96-40.96s-18.338-40.96-40.96-40.96h-655.36c-22.621 0-40.96 18.339-40.96 40.96zM122.88 454.701c0 22.622 18.339 40.96 40.96 40.96h655.36c22.622 0 40.96-18.338 40.96-40.96s-18.338-40.96-40.96-40.96h-655.36c-22.621 0-40.96 18.338-40.96 40.96zM122.88 208.941c0 22.622 18.339 40.96 40.96 40.96h655.36c22.622 0 40.96-18.338 40.96-40.96s-18.338-40.96-40.96-40.96h-655.36c-22.621 0-40.96 18.338-40.96 40.96z" />
<glyph unicode="&#xe94c;" glyph-name="menu_open" horiz-adv-x="983" d="M225.571 725.129c-42.271-42.27-61.731-118.2-61.731-265.951 0-147.747 19.461-223.678 61.731-265.945 42.27-42.271 118.2-61.735 265.949-61.735 147.747 0 223.678 19.464 265.949 61.735 42.271 42.267 61.731 118.198 61.731 265.945 0 147.751-19.46 223.681-61.731 265.951s-118.202 61.731-265.949 61.731c-147.749 0-223.678-19.461-265.949-61.731zM167.645 783.055c68.322 68.321 176.712 85.725 323.875 85.725 147.165 0 255.554-17.403 323.875-85.725s85.725-176.712 85.725-323.877c0-147.161-17.404-255.554-85.725-323.875s-176.71-85.725-323.875-85.725c-147.163 0-255.554 17.404-323.875 85.725s-85.725 176.714-85.725 323.875c0 147.165 17.403 255.556 85.725 323.877zM462.557 594.057c-15.995 15.996-15.995 41.93 0 57.926s41.931 15.996 57.926 0l163.84-163.838c15.995-15.999 15.995-41.931 0-57.93l-163.84-163.84c-15.995-15.995-41.931-15.995-57.926 0-15.995 15.999-15.995 41.931 0 57.93l93.917 93.913h-228.794c-22.621 0-40.96 18.342-40.96 40.96 0 22.622 18.339 40.96 40.96 40.96h228.794l-93.917 93.919z" />
<glyph unicode="&#xe94d;" glyph-name="minus" horiz-adv-x="983" d="M163.84 457.88c0 22.622 18.339 40.96 40.96 40.96h573.44c22.622 0 40.96-18.338 40.96-40.96s-18.338-40.96-40.96-40.96h-573.44c-22.621 0-40.96 18.338-40.96 40.96z" />
<glyph unicode="&#xe94e;" glyph-name="mouse" horiz-adv-x="1067" d="M448 789.333c-33.948 0-66.505-13.486-90.51-37.49s-37.49-56.562-37.49-90.51v-426.667c0-33.946 13.486-66.505 37.49-90.509s56.562-37.491 90.51-37.491h170.667c33.946 0 66.505 13.487 90.509 37.491s37.491 56.563 37.491 90.509v426.667c0 33.948-13.487 66.505-37.491 90.51s-56.563 37.49-90.509 37.49h-170.667zM297.151 812.183c40.008 40.008 94.27 62.484 150.849 62.484h170.667c56.58 0 110.844-22.476 150.848-62.484 40.009-40.008 62.485-94.27 62.485-150.849v-426.667c0-56.58-22.477-110.844-62.485-150.848-40.004-40.009-94.268-62.485-150.848-62.485h-170.667c-56.579 0-110.842 22.477-150.849 62.485-40.008 40.004-62.484 94.268-62.484 150.848v426.667c0 56.579 22.476 110.842 62.484 150.849zM533.333 704c23.565 0 42.667-19.103 42.667-42.667v-170.667c0-23.565-19.102-42.667-42.667-42.667s-42.667 19.102-42.667 42.667v170.667c0 23.564 19.102 42.667 42.667 42.667z" />
<glyph unicode="&#xe94f;" glyph-name="null" horiz-adv-x="983" d="M286.72 789.769c77.596 44.798 167.739 62.916 256.618 51.578s171.59-51.506 235.454-114.348c63.865-62.843 105.366-144.894 118.137-233.578 12.771-88.682-3.891-179.11-47.432-257.417-43.536-78.311-111.555-140.186-193.622-176.14s-173.662-44.007-260.746-22.921c-87.083 21.082-164.851 70.136-221.387 139.649-56.535 69.509-88.719 155.64-91.618 245.195l-0.205 13.271 0.205 13.271c2.259 69.612 22.233 137.499 58.033 197.244s86.243 109.374 146.563 144.197z" />
<glyph unicode="&#xe950;" glyph-name="phone" horiz-adv-x="983" d="M204.8 718c-10.863 0-21.282-4.316-28.963-11.997-7.433-7.433-11.715-17.43-11.983-27.913 9.42-149.255 72.96-289.969 178.733-395.744 105.773-105.771 246.487-169.312 395.742-178.733 10.486 0.27 20.48 4.551 27.914 11.985 7.68 7.68 11.997 18.1 11.997 28.963v136.11l-146.665 58.663-43.491-72.487c-10.969-18.28-34.124-25.092-53.24-15.663-97.034 47.858-175.564 126.386-223.419 223.42-9.429 19.116-2.617 42.271 15.661 53.24l72.488 43.493-58.665 146.664h-136.109zM117.911 763.929c23.045 23.045 54.299 35.991 86.889 35.991h163.84c16.749 0 31.81-10.197 38.031-25.748l81.921-204.8c7.467-18.666 0.283-39.993-16.957-50.335l-68.567-41.14c33.747-55.034 80.036-101.323 135.070-135.070l41.14 68.567c10.342 17.24 31.67 24.424 50.336 16.957l204.8-81.92c15.548-6.222 25.747-21.283 25.747-38.031v-163.84c0-32.592-12.947-63.844-35.992-86.888s-54.297-35.992-86.888-35.992c-0.827 0-1.659 0.025-2.486 0.074-169.759 10.318-329.873 82.407-450.133 202.666-120.26 120.263-192.349 280.375-202.665 450.136-0.050 0.827-0.075 1.656-0.075 2.485 0 32.59 12.946 63.845 35.991 86.889z" />
<glyph unicode="&#xe951;" glyph-name="photo_cancel" d="M256 789.333c-22.632 0-44.337-8.99-60.34-24.994s-24.994-37.708-24.994-60.34v-323.661l141.082 141.073c26.204 25.214 58.481 40.497 93.585 40.497 35.102 0 67.379-15.283 93.585-40.497l0.585-0.576 97.83-97.83 13.077 13.065c35.234 33.92 80.858 48.964 126.967 35.806 22.66-6.464 35.789-30.076 29.325-52.732-6.464-22.66-30.076-35.793-52.732-29.325-11.857 3.379-26.897 1.476-44.113-14.972l-42.355-42.351c-16.661-16.661-43.678-16.661-60.339 0l-127.684 127.68c-13.28 12.681-25.108 16.401-34.146 16.401s-20.866-3.721-34.148-16.401l-200.518-200.516v-67.661c0-22.63 8.99-44.335 24.994-60.339s37.708-24.994 60.34-24.994h277.333c23.565 0 42.667-19.102 42.667-42.667s-19.102-42.667-42.667-42.667h-277.333c-45.264 0-88.673 17.98-120.68 49.988-32.006 32.004-49.987 75.413-49.987 120.678v85.325c0 0.004 0 0.013 0 0.017v426.658c0 45.264 17.981 88.673 49.987 120.68s75.416 49.987 120.68 49.987h512c45.265 0 88.674-17.981 120.678-49.987 32.009-32.006 49.988-75.416 49.988-120.68v-277.333c0-23.565-19.102-42.667-42.667-42.667s-42.667 19.102-42.667 42.667v277.333c0 22.632-8.99 44.337-24.994 60.34s-37.709 24.994-60.339 24.994h-512zM597.333 618.667c0 23.564 19.102 42.667 42.667 42.667h0.427c23.565 0 42.667-19.103 42.667-42.667s-19.102-42.667-42.667-42.667h-0.427c-23.565 0-42.667 19.103-42.667 42.667zM689.988 270.012c32.004 32.009 75.413 49.988 120.678 49.988s88.674-17.98 120.678-49.988c32.009-32.004 49.988-75.413 49.988-120.678s-17.98-88.674-49.988-120.678c-32.004-32.009-75.413-49.988-120.678-49.988s-88.674 17.98-120.678 49.988c-32.009 32.004-49.988 75.413-49.988 120.678s17.98 88.674 49.988 120.678zM810.667 234.667c-22.63 0-44.335-8.99-60.339-24.994s-24.994-37.709-24.994-60.339c0-7.522 0.994-14.942 2.906-22.084l104.512 104.512c-7.142 1.911-14.562 2.906-22.084 2.906zM893.094 171.418l-104.512-104.512c7.142-1.911 14.562-2.906 22.084-2.906 22.63 0 44.335 8.99 60.339 24.994s24.994 37.709 24.994 60.339c0 7.522-0.994 14.942-2.906 22.084z" />
<glyph unicode="&#xe952;" glyph-name="photo_down" horiz-adv-x="983" d="M245.76 794c-21.726 0-42.563-8.631-57.926-23.994s-23.994-36.2-23.994-57.926v-310.713l135.439 135.426c25.156 24.208 56.142 38.88 89.841 38.88 33.698 0 64.684-14.672 89.842-38.88l0.561-0.549 93.917-93.917 12.546 12.534c36.012 34.693 83.050 48.529 129.434 31.969 21.303-7.606 32.408-31.044 24.801-52.347s-31.044-32.408-52.351-24.801c-12.296 4.391-27.431 3.027-44.802-13.582l-11.702-11.698 11.997-11.997c15.995-15.995 15.995-41.931 0-57.926-15.995-15.999-41.931-15.999-57.926 0l-40.911 40.911c-0.016 0.016-0.033 0.033-0.049 0.049s-0.033 0.029-0.049 0.045l-122.528 122.528c-12.749 12.173-24.103 15.741-32.78 15.741s-20.031-3.568-32.782-15.741l-192.498-192.496v-64.954c0-21.729 8.631-42.566 23.994-57.926 15.363-15.364 36.2-23.994 57.926-23.994h266.24c22.622 0 40.96-18.342 40.96-40.96 0-22.622-18.338-40.96-40.96-40.96h-266.24c-43.453 0-85.126 17.261-115.852 47.985-30.726 30.728-47.988 72.401-47.988 115.855v81.912c0 0.004 0 0.008 0 0.012v409.595c0 43.453 17.262 85.126 47.988 115.852s72.399 47.988 115.852 47.988h491.52c43.454 0 85.127-17.262 115.851-47.988 30.728-30.726 47.989-72.399 47.989-115.852v-266.239c0-22.622-18.338-40.96-40.96-40.96s-40.96 18.338-40.96 40.96v266.239c0 21.726-8.63 42.563-23.994 57.926s-36.2 23.994-57.926 23.994h-491.52zM573.44 630.16c0 22.621 18.338 40.96 40.96 40.96h0.41c22.622 0 40.96-18.339 40.96-40.96s-18.338-40.96-40.96-40.96h-0.41c-22.622 0-40.96 18.338-40.96 40.96zM778.24 343.441c22.622 0 40.96-18.338 40.96-40.96v-146.874l52.957 52.957c15.995 15.995 41.931 15.995 57.926 0 15.995-15.999 15.995-41.931 0-57.926l-122.88-122.88c-15.995-15.999-41.931-15.999-57.926 0l-122.88 122.88c-15.995 15.995-15.995 41.927 0 57.926 15.995 15.995 41.931 15.995 57.926 0l52.957-52.957v146.874c0 22.622 18.338 40.96 40.96 40.96z" />
<glyph unicode="&#xe953;" glyph-name="plus" d="M512 746.667c23.565 0 42.667-19.103 42.667-42.667v-213.333h213.333c23.565 0 42.667-19.102 42.667-42.667s-19.102-42.667-42.667-42.667h-213.333v-213.333c0-23.565-19.102-42.667-42.667-42.667s-42.667 19.102-42.667 42.667v213.333h-213.333c-23.564 0-42.667 19.102-42.667 42.667s19.103 42.667 42.667 42.667h213.333v213.333c0 23.564 19.102 42.667 42.667 42.667z" />
<glyph unicode="&#xe954;" glyph-name="QltAnalysises" d="M0 357.647v-421.647h1024v90.353l-512 421.647-227.569-331.294zM0 719.059l227.569-180.706 284.431 421.647 284.431-240.941h227.569v-540.311l-534.769 440.32-226.424-330.089-262.807 222.871z" />
<glyph unicode="&#xe955;" glyph-name="QltMasters" horiz-adv-x="870" d="M773.689 857.6h-202.126c-18.932 58.837-72.542 100.933-136.193 102.397l-0.169 0.003c-63.89-1.392-117.583-43.511-136.245-101.364l-0.289-1.036h-201.956c-53.804-1.784-96.742-45.829-96.742-99.902 0-0.878 0.011-1.754 0.034-2.627l-0.003 0.129v-716.8c-0.020-0.744-0.031-1.619-0.031-2.498 0-54.074 42.939-98.118 96.579-99.898l0.163-0.004h676.978c53.804 1.784 96.742 45.829 96.742 99.902 0 0.878-0.011 1.754-0.034 2.627l0.003-0.129v716.8c0.020 0.744 0.031 1.619 0.031 2.498 0 54.074-42.939 98.118-96.579 99.898l-0.163 0.004zM435.2 857.6c26.905-0.908 48.37-22.936 48.37-49.979 0-0.429-0.005-0.858-0.016-1.285l0.001 0.063c0.036-0.701 0.057-1.521 0.057-2.346 0-26.737-21.675-48.412-48.412-48.412s-48.412 21.675-48.412 48.412c0 0.825 0.021 1.646 0.061 2.461l-0.005-0.115c-0.010 0.364-0.015 0.792-0.015 1.221 0 27.042 21.466 49.071 48.288 49.976l0.083 0.002zM531.911 140.8h-338.489v102.4h338.489zM676.978 345.6h-483.556v102.4h483.556zM676.978 550.4h-483.556v102.4h483.556z" />
<glyph unicode="&#xe956;" glyph-name="question_circle" d="M515.699 682.924c-43.369 0-79.57-15.15-108.544-39.756s-45.929-44.574-50.808-104.809h88.455c1.927 30.118 9.126 37.075 21.564 48.519s27.889 18.613 46.411 18.613c18.522 0 33.611-5.241 45.297-17.198 11.718-11.926 17.56-26.564 17.56-44.574s-5.632-32.949-16.808-45.146l-53.369-53.278c-15.601-15.601-18.854-28.13-23.492-37.617s-0.090-23.912-0.090-43.402v-36.739h60.236v25.054c0 19.456 8.704 34.577 17.498 45.298 3.373 3.886 10.028 8.644 15.689 14.246 5.604 5.632 13.494 12.198 21.538 19.757 8.038 7.529 15.058 13.764 19.934 18.643 4.853 4.849 12.169 13.161 21.447 24.847 16.054 19.486 24.246 43.851 24.246 73.095 0 42.406-13.557 75.385-40.841 99.057-27.346 23.582-62.556 35.388-105.925 35.388zM510.206 293.046c-15.36 0-28.491-5.387-39.484-16.082-10.963-10.718-16.444-23.489-16.444-38.366 0-14.848 5.602-27.529 16.806-38.007 11.204-10.485 24.486-15.696 39.816-15.696 15.36 0 28.521 5.365 39.484 16.054 10.933 10.724 16.444 23.524 16.444 38.372s-5.632 27.529-16.836 38.036c-11.143 10.485-24.425 15.69-39.785 15.69zM512 960c-282.775 0-512-229.225-512-512 0-282.772 229.225-512 512-512 282.772 0 512 229.228 512 512 0 282.775-229.228 512-512 512zM512 26.351c-232.87 0-421.647 188.78-421.647 421.649s188.777 421.647 421.647 421.647c232.869 0 421.649-188.777 421.649-421.647s-188.78-421.649-421.649-421.649z" />
<glyph unicode="&#xe957;" glyph-name="RcpAnalysises" d="M384-64h256v1024h-256zM0-64h256v512h-256zM768 640v-704h256v704z" />
</font>
</defs>
</svg>
